<svg width="302" height="195" viewBox="0 0 302 195" fill="none" xmlns="http://www.w3.org/2000/svg">
<path d="M135.15 121.248C123.49 133.854 110.236 142.253 95.388 146.445C80.5557 150.58 63.8505 150.058 45.2725 144.879C42.33 144.059 38.9581 142.994 35.1568 141.686C31.3394 140.435 27.41 139.029 23.3685 137.467C19.327 135.905 15.2888 134.22 11.2539 132.411C7.26067 130.676 3.59611 128.877 0.260229 127.014C5.1678 121.232 9.25486 115.158 12.5214 108.794C15.8618 102.388 18.5854 95.4059 20.6925 87.8478C24.9693 91.4651 29.6439 94.8824 34.7163 98.0996C39.7887 101.317 44.9334 104.275 50.1505 106.973C55.4414 109.629 60.6604 111.985 65.8076 114.042C71.0125 116.115 75.8858 117.816 80.4277 119.144C80.5242 118.798 80.6415 118.488 80.7797 118.216C80.9178 117.944 81.0351 117.634 81.1316 117.288C82.1288 113.711 82.2809 110.489 81.5878 107.622C80.9108 104.697 79.767 102.109 78.1564 99.8568C76.6035 97.6207 74.773 95.7113 72.6648 94.1287C70.5566 92.5461 68.5572 91.2426 66.6665 90.2181C64.7758 89.1936 63.175 88.4675 61.8641 88.0399C60.627 87.5706 60.0661 87.3521 60.1815 87.3842L65.0183 68.0268C69.493 69.1499 73.5114 69.6794 77.0735 69.6154C80.6356 69.5514 83.7877 69.0621 86.5298 68.1477C89.3296 67.2494 91.7161 66.0493 93.6893 64.5474C95.7363 63.004 97.4451 61.3351 98.8158 59.541C100.244 57.7629 101.376 55.9332 102.211 54.052C103.104 52.1868 103.776 50.4465 104.226 48.831C104.355 48.3695 104.447 47.9287 104.502 47.5087C104.573 47.0311 104.673 46.5615 104.801 46.0999C98.8198 44.8055 92.7868 43.8076 86.7021 43.1062C80.6752 42.4209 74.6303 42.1348 68.5673 42.2478C62.5621 42.3769 56.5516 42.9709 50.5359 44.0297C44.5202 45.0886 38.5167 46.7727 32.5255 49.082C33.5363 41.2182 33.6173 33.344 32.7686 25.4593C31.9199 17.5745 30.3755 9.62025 28.1354 1.59638C32.6982 1.06518 37.769 0.831024 43.3476 0.893908C48.984 0.972876 54.6217 1.26986 60.2609 1.78487C65.9738 2.25827 71.4701 2.95108 76.7498 3.86332C82.1032 4.73394 86.7416 5.71612 90.6649 6.80985C98.8577 9.09382 106.554 12.2654 113.755 16.3247C120.955 20.3839 127.366 25.1558 132.988 30.6403C138.626 36.0672 143.288 42.0927 146.976 48.7168C150.679 55.2832 153.143 62.2813 154.367 69.7111L142.769 62.4673C141.93 65.0314 140.835 67.3997 139.483 69.5723C138.147 71.6871 136.642 73.6302 134.966 75.4017C133.307 77.1154 131.544 78.6447 129.677 79.9896C127.81 81.3344 125.962 82.4981 124.133 83.4807C119.87 85.8365 115.287 87.6678 110.384 88.9746C113.49 92.3279 116.134 95.894 118.314 99.6728C119.229 101.296 120.084 103.026 120.877 104.864C121.728 106.718 122.374 108.639 122.815 110.628C123.313 112.632 123.577 114.695 123.607 116.818C123.711 118.899 123.494 121.015 122.957 123.165C124.938 122.972 126.936 122.72 128.95 122.411C131.021 122.118 133.088 121.73 135.15 121.248ZM262.765 170.349C259.779 175.485 256.027 179.911 251.509 183.626C247.049 187.357 241.83 190.13 235.852 191.946C229.916 193.835 223.253 194.651 215.863 194.394C208.514 194.211 200.488 192.782 191.782 190.106C183.134 187.447 173.84 183.426 163.9 178.043C153.943 172.718 143.389 165.858 132.236 157.464L158.733 117.283C160.054 120.574 161.898 123.886 164.264 127.219C166.688 130.569 169.399 133.781 172.397 136.855C175.469 139.888 178.75 142.73 182.239 145.381C185.728 148.033 189.256 150.322 192.822 152.249C196.463 154.134 199.998 155.617 203.427 156.698C206.931 157.737 210.159 158.201 213.112 158.092C216.123 157.998 218.759 157.241 221.02 155.82C223.282 154.398 225.02 152.178 226.235 149.159C227.231 146.701 227.375 144.067 226.665 141.258C225.956 138.448 224.58 135.578 222.538 132.645C220.552 129.729 218.029 126.849 214.966 124.006C211.92 121.105 208.529 118.325 204.793 115.667C201.115 113.025 197.199 110.565 193.046 108.288C188.95 106.027 184.832 104.071 180.692 102.419C176.625 100.726 172.671 99.4058 168.831 98.4596C164.991 97.5135 161.479 97.063 158.295 97.1081C161.891 94.6908 166.106 93.0676 170.938 92.2385L185.132 54.0375C183.057 51.2206 181.195 48.3077 179.547 45.2988C177.972 42.2483 176.614 38.9783 175.473 35.489C185.059 39.4671 194.943 43.1553 205.126 46.5536C215.325 49.8943 225.739 52.7975 236.368 55.2633C246.998 57.729 257.78 59.6467 268.715 61.0162C279.707 62.4019 290.725 63.1415 301.767 63.2351C297.166 69.4764 293.242 75.9684 289.995 82.7112C286.821 89.4123 284.126 96.4024 281.91 103.682C268.387 100.222 256.018 96.5254 244.803 92.5907C233.604 88.5983 223.633 84.1084 214.888 79.1212L208.201 96.7504C212.092 97.9595 215.683 99.2405 218.975 100.593C222.324 101.962 225.24 103.211 227.724 104.338C230.637 105.71 233.32 107.017 235.771 108.26C241.427 111.392 246.212 114.747 250.127 118.325C254.115 121.862 257.323 125.523 259.75 129.309C262.25 133.052 264.06 136.821 265.178 140.615C266.355 144.425 267.004 148.119 267.125 151.698C267.263 155.218 266.919 158.573 266.092 161.762C265.322 164.968 264.214 167.83 262.765 170.349Z" fill="white"/>
</svg>
