<?xml version="1.0" encoding="UTF-8" standalone="no"?>
<svg width="85px" height="25px" viewBox="0 0 85 25" version="1.1" xmlns="http://www.w3.org/2000/svg" xmlns:xlink="http://www.w3.org/1999/xlink">
    <!-- Generator: sketchtool 3.8.3 (29802) - http://www.bohemiancoding.com/sketch -->
    <title>42E5A653-B6E7-4035-8912-4005A8DFE4A8</title>
    <desc>Created with sketchtool.</desc>
    <defs></defs>
    <g id="controls" stroke="none" stroke-width="1" fill="none" fill-rule="evenodd">
        <g id="иконки" transform="translate(-1169.000000, -1724.000000)">
            <g id="app-store-badge" transform="translate(1169.000000, 1724.000000)">
                <g id="Group">
                    <rect id="Rectangle-63" fill="#222222" x="0" y="0" width="85" height="25" rx="3"></rect>
                    <path d="M17.9224806,11.87 C17.9224806,9.855 19.6356589,8.88 19.7015504,8.815 C18.7131783,7.45 17.2635659,7.255 16.7364341,7.19 C15.4844961,7.06 14.2325581,7.905 13.6395349,7.905 C12.9806202,7.905 11.9922481,7.19 10.9379845,7.19 C9.55426357,7.19 8.30232558,7.97 7.57751938,9.205 C6.12790698,11.675 7.18217054,15.315 8.56589147,17.33 C9.29069767,18.305 10.0813953,19.41 11.1356589,19.345 C12.1899225,19.28 12.5852713,18.695 13.8372093,18.695 C15.0891473,18.695 15.4186047,19.345 16.5387597,19.345 C17.6589147,19.345 18.3837209,18.37 19.0426357,17.395 C19.8333333,16.29 20.1627907,15.185 20.1627907,15.12 C20.0968992,15.055 17.9224806,14.275 17.9224806,11.87 L17.9224806,11.87 Z" id="Shape" fill="#FFFFFF"></path>
                    <path d="M15.879845,5.89 C16.4069767,5.175 16.8023256,4.265 16.7364341,3.29 C15.9457364,3.355 14.8914729,3.81 14.3643411,4.525 C13.8372093,5.11 13.375969,6.085 13.5077519,6.995 C14.3643411,7.06 15.2868217,6.54 15.879845,5.89 L15.879845,5.89 Z" id="Shape" fill="#FFFFFF"></path>
                    <path d="M32.9457364,19.215 L31.496124,19.215 L30.7054264,16.745 L27.9379845,16.745 L27.2131783,19.215 L25.8294574,19.215 L28.5968992,10.83 L30.3100775,10.83 L32.9457364,19.215 L32.9457364,19.215 Z M30.4418605,15.705 L29.7170543,13.495 C29.6511628,13.3 29.5193798,12.715 29.255814,11.935 L29.255814,11.935 C29.1899225,12.26 29.0581395,12.845 28.8604651,13.495 L28.1356589,15.705 L30.4418605,15.705 L30.4418605,15.705 Z" id="Shape" fill="#FFFFFF"></path>
                    <path d="M39.996124,16.16 C39.996124,17.2 39.7325581,17.98 39.1395349,18.63 C38.6124031,19.15 38.0193798,19.41 37.2286822,19.41 C36.4379845,19.41 35.8449612,19.15 35.5155039,18.565 L35.5155039,18.565 L35.5155039,21.75 L34.1317829,21.75 L34.1317829,15.25 C34.1317829,14.6 34.1317829,13.95 34.0658915,13.235 L35.251938,13.235 L35.3178295,14.21 L35.3178295,14.21 C35.7790698,13.495 36.4379845,13.105 37.3604651,13.105 C38.0852713,13.105 38.6782946,13.365 39.1395349,13.95 C39.7325581,14.47 39.996124,15.185 39.996124,16.16 L39.996124,16.16 Z M38.6124031,16.16 C38.6124031,15.575 38.4806202,15.055 38.2170543,14.73 C37.9534884,14.34 37.5581395,14.145 37.0310078,14.145 C36.7015504,14.145 36.372093,14.275 36.1085271,14.47 C35.8449612,14.665 35.6472868,14.99 35.5813953,15.315 C35.5155039,15.51 35.5155039,15.64 35.5155039,15.705 L35.5155039,16.745 C35.5155039,17.2 35.6472868,17.525 35.9108527,17.85 C36.1744186,18.175 36.5697674,18.305 36.9651163,18.305 C37.4922481,18.305 37.8875969,18.11 38.1511628,17.72 C38.4806202,17.33 38.6124031,16.81 38.6124031,16.16 L38.6124031,16.16 Z" id="Shape" fill="#FFFFFF"></path>
                    <path d="M47.0465116,16.16 C47.0465116,17.2 46.7829457,17.98 46.1899225,18.63 C45.6627907,19.15 45.0697674,19.41 44.2790698,19.41 C43.4883721,19.41 42.8953488,19.15 42.5658915,18.565 L42.5658915,18.565 L42.5658915,21.75 L41.1821705,21.75 L41.1821705,15.25 C41.1821705,14.6 41.1821705,13.95 41.1162791,13.235 L42.3023256,13.235 L42.3682171,14.21 L42.3682171,14.21 C42.8294574,13.495 43.4883721,13.105 44.4108527,13.105 C45.1356589,13.105 45.7286822,13.365 46.1899225,13.95 C46.7829457,14.47 47.0465116,15.185 47.0465116,16.16 L47.0465116,16.16 Z M45.6627907,16.16 C45.6627907,15.575 45.5310078,15.055 45.2674419,14.73 C45.003876,14.34 44.6085271,14.145 44.0813953,14.145 C43.751938,14.145 43.4224806,14.275 43.1589147,14.47 C42.8953488,14.665 42.6976744,14.99 42.6317829,15.315 C42.5658915,15.51 42.5658915,15.64 42.5658915,15.705 L42.5658915,16.745 C42.5658915,17.2 42.6976744,17.525 42.9612403,17.85 C43.2248062,18.175 43.620155,18.305 44.0155039,18.305 C44.5426357,18.305 44.9379845,18.11 45.2015504,17.72 C45.5310078,17.33 45.6627907,16.81 45.6627907,16.16 L45.6627907,16.16 Z" id="Shape" fill="#FFFFFF"></path>
                    <path d="M54.9534884,16.875 C54.9534884,17.59 54.6899225,18.175 54.2286822,18.63 C53.7015504,19.15 52.9108527,19.345 51.9224806,19.345 C51,19.345 50.2751938,19.15 49.748062,18.825 L50.0775194,17.72 C50.6705426,18.045 51.3294574,18.24 52.0542636,18.24 C52.5813953,18.24 52.9767442,18.11 53.2403101,17.915 C53.503876,17.655 53.6356589,17.395 53.6356589,17.005 C53.6356589,16.68 53.503876,16.355 53.3062016,16.16 C53.0426357,15.9 52.6472868,15.705 52.120155,15.51 C50.6046512,14.99 49.879845,14.145 49.879845,13.105 C49.879845,12.39 50.1434109,11.87 50.6705426,11.415 C51.1976744,10.96 51.8565891,10.765 52.7790698,10.765 C53.5697674,10.765 54.1627907,10.895 54.6899225,11.155 L54.3604651,12.26 C53.8992248,12 53.372093,11.87 52.7131783,11.87 C52.251938,11.87 51.8565891,12 51.5930233,12.195 C51.3953488,12.39 51.2635659,12.65 51.2635659,12.975 C51.2635659,13.3 51.3953488,13.56 51.6589147,13.82 C51.8565891,14.015 52.3178295,14.21 52.9108527,14.47 C53.6356589,14.73 54.1627907,15.12 54.5581395,15.51 C54.755814,15.835 54.9534884,16.29 54.9534884,16.875 L54.9534884,16.875 Z" id="Shape" fill="#FFFFFF"></path>
                    <path d="M59.4341085,14.21 L57.9186047,14.21 L57.9186047,17.135 C57.9186047,17.85 58.1821705,18.24 58.7093023,18.24 C58.9728682,18.24 59.1705426,18.24 59.3023256,18.175 L59.3682171,19.215 C59.1046512,19.345 58.7751938,19.345 58.3139535,19.345 C57.7868217,19.345 57.3255814,19.215 57.0620155,18.89 C56.7325581,18.565 56.6007752,18.045 56.6007752,17.265 L56.6007752,14.21 L55.6782946,14.21 L55.6782946,13.17 L56.6007752,13.17 L56.6007752,12.065 L57.9186047,11.675 L57.9186047,13.17 L59.4341085,13.17 L59.4341085,14.21 L59.4341085,14.21 Z" id="Shape" fill="#FFFFFF"></path>
                    <path d="M66.2209302,16.16 C66.2209302,17.07 65.9573643,17.85 65.4302326,18.435 C64.8372093,19.02 64.1124031,19.345 63.1899225,19.345 C62.2674419,19.345 61.5426357,19.02 61.0155039,18.435 C60.4883721,17.85 60.2248062,17.135 60.2248062,16.225 C60.2248062,15.315 60.4883721,14.535 61.0813953,13.95 C61.6085271,13.365 62.3992248,13.04 63.3217054,13.04 C64.244186,13.04 64.9689922,13.365 65.496124,13.95 C65.9573643,14.535 66.2209302,15.25 66.2209302,16.16 L66.2209302,16.16 Z M64.7713178,16.225 C64.7713178,15.64 64.6395349,15.185 64.375969,14.795 C64.1124031,14.34 63.6511628,14.08 63.124031,14.08 C62.5968992,14.08 62.1356589,14.34 61.872093,14.795 C61.6085271,15.185 61.4767442,15.705 61.4767442,16.225 C61.4767442,16.81 61.6085271,17.265 61.872093,17.655 C62.1356589,18.11 62.5968992,18.37 63.124031,18.37 C63.6511628,18.37 64.0465116,18.11 64.375969,17.655 C64.6395349,17.265 64.7713178,16.745 64.7713178,16.225 L64.7713178,16.225 Z" id="Shape" fill="#FFFFFF"></path>
                    <path d="M70.6356589,14.34 C70.503876,14.34 70.372093,14.275 70.1744186,14.275 C69.7131783,14.275 69.3178295,14.47 69.0542636,14.795 C68.8565891,15.12 68.7248062,15.51 68.7248062,15.965 L68.7248062,19.15 L67.3410853,19.15 L67.3410853,14.99 C67.3410853,14.275 67.3410853,13.69 67.2751938,13.105 L68.4612403,13.105 L68.5271318,14.275 L68.5930233,14.275 C68.7248062,13.885 68.9883721,13.56 69.251938,13.3 C69.5813953,13.105 69.9108527,12.975 70.2403101,12.975 L70.5697674,12.975 L70.5697674,14.34 L70.6356589,14.34 Z" id="Shape" fill="#FFFFFF"></path>
                    <path d="M76.6976744,15.9 C76.6976744,16.16 76.6976744,16.355 76.6317829,16.485 L72.5465116,16.485 C72.5465116,17.07 72.744186,17.525 73.1395349,17.85 C73.4689922,18.11 73.9302326,18.305 74.4573643,18.305 C75.0503876,18.305 75.6434109,18.24 76.1046512,18.045 L76.3023256,18.955 C75.7093023,19.215 75.0503876,19.345 74.2596899,19.345 C73.3372093,19.345 72.5465116,19.085 72.0193798,18.5 C71.4922481,17.98 71.2286822,17.2 71.2286822,16.29 C71.2286822,15.38 71.4922481,14.6 71.9534884,14.015 C72.4806202,13.365 73.2054264,13.04 74.127907,13.04 C74.9844961,13.04 75.7093023,13.365 76.1046512,14.015 C76.5658915,14.535 76.6976744,15.185 76.6976744,15.9 L76.6976744,15.9 Z M75.4457364,15.575 C75.4457364,15.185 75.379845,14.86 75.1821705,14.535 C74.9186047,14.145 74.5891473,13.95 74.127907,13.95 C73.6666667,13.95 73.3372093,14.145 73.0736434,14.47 C72.875969,14.73 72.744186,15.12 72.6782946,15.51 L75.4457364,15.51 L75.4457364,15.575 Z" id="Shape" fill="#FFFFFF"></path>
                    <path d="M28.3254264,8.1936 C28.0724018,8.1936 27.8391484,8.16435029 27.6256589,8.10585 C27.4121695,8.04734971 27.2273457,7.9576506 27.0711822,7.83675 C26.9150186,7.7158494 26.79345,7.56375092 26.7064729,7.38045 C26.6194957,7.19714908 26.5760078,6.97875127 26.5760078,6.72525 L27.1156589,6.72525 C27.1196124,6.91245094 27.1561818,7.07137435 27.2253682,7.202025 C27.2945546,7.33267565 27.3854839,7.4379746 27.4981589,7.517925 C27.6108339,7.5978754 27.7422861,7.65539982 27.8925194,7.6905 C28.0427527,7.72560018 28.2028674,7.74315 28.3728682,7.74315 C28.519148,7.74315 28.655542,7.7226752 28.7820543,7.681725 C28.9085665,7.6407748 29.0182747,7.58227538 29.1111822,7.506225 C29.2040896,7.43017462 29.2772284,7.33852554 29.3306008,7.231275 C29.3839731,7.12402446 29.4106589,7.00410066 29.4106589,6.8715 C29.4106589,6.71939924 29.381008,6.59557548 29.3217054,6.500025 C29.2624028,6.40447452 29.1843222,6.33037526 29.0874612,6.277725 C28.9906003,6.22507474 28.877927,6.1890001 28.749438,6.1695 C28.620949,6.1499999 28.4855433,6.14025 28.3432171,6.14025 C28.2839144,6.14025 28.2167058,6.14122499 28.1415891,6.143175 C28.0664725,6.14512501 28.0071708,6.14804998 27.9636822,6.15195 L27.9636822,5.69565 C28.0111243,5.70345004 28.0743794,5.70735 28.1534496,5.70735 L28.3432171,5.70735 C28.4776363,5.70735 28.6011816,5.69467513 28.7138566,5.669325 C28.8265316,5.64397487 28.9233911,5.60205029 29.004438,5.54355 C29.0854849,5.48504971 29.1487401,5.40802548 29.1942054,5.312475 C29.2396708,5.21692452 29.2624031,5.0989507 29.2624031,4.95855 C29.2624031,4.82984936 29.237694,4.72260043 29.1882752,4.6368 C29.1388563,4.55099957 29.0716477,4.48177526 28.9866473,4.429125 C28.9016469,4.37647474 28.8047874,4.33845012 28.6960659,4.31505 C28.5873444,4.29164988 28.4736828,4.27995 28.3550775,4.27995 C28.0427504,4.27995 27.7976365,4.34722433 27.6197287,4.481775 C27.4418208,4.61632567 27.3370544,4.83569848 27.3054264,5.1399 L26.7657752,5.1399 C26.7736822,4.91759889 26.8201352,4.72357583 26.9051357,4.557825 C26.9901361,4.39207417 27.1037977,4.25557554 27.246124,4.148325 C27.3884503,4.04107446 27.5554835,3.96015027 27.7472287,3.90555 C27.9389738,3.85094973 28.1475183,3.82365 28.3728682,3.82365 C28.5744971,3.82365 28.7632743,3.84607478 28.9392054,3.890925 C29.1151365,3.93577522 29.2683327,4.00499953 29.3987984,4.0986 C29.5292642,4.19220047 29.6320539,4.31017429 29.7071705,4.452525 C29.7822872,4.59487571 29.819845,4.76354902 29.819845,4.95855 C29.819845,5.07165057 29.8000777,5.17694951 29.7605426,5.27445 C29.7210076,5.37195049 29.6686244,5.45969961 29.6033915,5.5377 C29.5381586,5.61570039 29.4630431,5.68297472 29.3780426,5.739525 C29.2930422,5.79607528 29.2070547,5.83799986 29.1200775,5.8653 L29.1200775,5.88285 C29.2584503,5.91015014 29.3810072,5.95597468 29.4877519,6.020325 C29.5944967,6.08467532 29.6834493,6.16169955 29.7546124,6.2514 C29.8257755,6.34110045 29.8791471,6.44054945 29.9147287,6.54975 C29.9503103,6.65895055 29.9681008,6.77009943 29.9681008,6.8832 C29.9681008,7.01190064 29.9384499,7.15229924 29.8791473,7.3044 C29.8198447,7.45650076 29.7239735,7.59884934 29.591531,7.73145 C29.4590885,7.86405066 29.2890902,7.97422456 29.081531,8.061975 C28.8739718,8.14972544 28.6219395,8.1936 28.3254264,8.1936 L28.3254264,8.1936 Z M31.4625194,8.16435 C31.3241466,8.16435 31.1936828,8.14972515 31.071124,8.120475 C30.9485653,8.09122485 30.8408338,8.04247534 30.7479264,7.974225 C30.6550189,7.90597466 30.5818801,7.81822554 30.5285078,7.710975 C30.4751354,7.60372446 30.4484496,7.47405076 30.4484496,7.32195 C30.4484496,7.15034914 30.4781005,7.00995055 30.5374031,6.90075 C30.5967057,6.79154945 30.6747863,6.70282534 30.7716473,6.634575 C30.8685082,6.56632466 30.9792048,6.51465018 31.1037403,6.47955 C31.2282758,6.44444982 31.3557745,6.41520012 31.4862403,6.3918 C31.6246131,6.36449986 31.7560653,6.34402507 31.8806008,6.330375 C32.0051363,6.31672493 32.1148445,6.29722513 32.2097287,6.271875 C32.3046129,6.24652487 32.3797284,6.20947524 32.4350775,6.160725 C32.4904266,6.11197476 32.5181008,6.04080047 32.5181008,5.9472 C32.5181008,5.83799945 32.4973452,5.75025033 32.4558333,5.68395 C32.4143215,5.61764967 32.3609499,5.56695018 32.2957171,5.53185 C32.2304842,5.49674982 32.1573454,5.47335006 32.0762984,5.46165 C31.9952515,5.44994994 31.9151942,5.4441 31.836124,5.4441 C31.6226346,5.4441 31.4447294,5.4840746 31.3024031,5.564025 C31.1600768,5.6439754 31.0829846,5.79509889 31.071124,6.0174 L30.5670543,6.0174 C30.5749613,5.83019906 30.6144958,5.67225064 30.6856589,5.54355 C30.7568221,5.41484936 30.8517048,5.3105254 30.9703101,5.230575 C31.0889153,5.1506246 31.2243209,5.09310018 31.376531,5.058 C31.5287411,5.02289982 31.6918208,5.00535 31.8657752,5.00535 C32.004148,5.00535 32.1415303,5.0150999 32.2779264,5.0346 C32.4143224,5.0541001 32.5378677,5.0940747 32.6485659,5.154525 C32.7592641,5.2149753 32.8482167,5.29979945 32.9154264,5.409 C32.982636,5.51820055 33.0162403,5.66054912 33.0162403,5.83605 L33.0162403,7.39215 C33.0162403,7.50915058 33.0231588,7.59494973 33.0369961,7.64955 C33.0508334,7.70415027 33.0972864,7.73145 33.1763566,7.73145 C33.2119382,7.73145 33.263333,7.7217001 33.3305426,7.7022 L33.3305426,8.0883 C33.2435655,8.13900025 33.1229853,8.16435 32.9687984,8.16435 C32.8383327,8.16435 32.7345546,8.12827536 32.6574612,8.056125 C32.5803678,7.98397464 32.5418217,7.86600082 32.5418217,7.7022 C32.4034489,7.86600082 32.2423459,7.98397464 32.0585078,8.056125 C31.8746696,8.12827536 31.6760088,8.16435 31.4625194,8.16435 L31.4625194,8.16435 Z M31.5751938,7.73145 C31.7412411,7.73145 31.8835653,7.70902522 32.0021705,7.664175 C32.1207758,7.61932478 32.2176353,7.56277534 32.2927519,7.494525 C32.3678686,7.42627466 32.4232169,7.3521754 32.4587984,7.272225 C32.49438,7.1922746 32.5121705,7.11720035 32.5121705,7.047 L32.5121705,6.53805 C32.4489144,6.58875025 32.365892,6.6238499 32.2631008,6.64335 C32.1603096,6.6628501 32.0525781,6.68039992 31.9399031,6.696 C31.8272281,6.71160008 31.7135665,6.72719992 31.5989147,6.7428 C31.484263,6.75840008 31.3814733,6.7856998 31.2905426,6.8247 C31.1996119,6.86370019 31.1254848,6.91927464 31.0681589,6.991425 C31.010833,7.06357536 30.9821705,7.16204938 30.9821705,7.28685 C30.9821705,7.36875041 30.9989727,7.43797472 31.0325775,7.494525 C31.0661823,7.55107528 31.1096703,7.59689982 31.1630426,7.632 C31.216415,7.66710018 31.2786818,7.69244992 31.349845,7.70805 C31.4210081,7.72365008 31.4961236,7.73145 31.5751938,7.73145 L31.5751938,7.73145 Z M33.8108915,5.07555 L35.9101938,5.07555 L35.9101938,5.5143 L34.3149612,5.5143 L34.3149612,8.1 L33.8108915,8.1 L33.8108915,5.07555 Z M36.3312403,5.07555 L36.8353101,5.07555 L36.8353101,5.48505 L36.8471705,5.48505 C36.9301942,5.31734916 37.060658,5.19547538 37.2385659,5.119425 C37.4164738,5.04337462 37.6121695,5.00535 37.8256589,5.00535 C38.0628694,5.00535 38.2694371,5.04824957 38.4453682,5.13405 C38.6212993,5.21985043 38.7675769,5.33587427 38.8842054,5.482125 C39.0008339,5.62837573 39.0887982,5.79704904 39.1481008,5.98815 C39.2074034,6.17925096 39.2370543,6.38204893 39.2370543,6.59655 C39.2370543,6.81495109 39.2083918,7.01872405 39.1510659,7.207875 C39.09374,7.39702595 39.0067641,7.56277429 38.8901357,7.705125 C38.7735072,7.84747571 38.6272296,7.95959959 38.4512984,8.0415 C38.2753673,8.12340041 38.0707764,8.16435 37.8375194,8.16435 C37.7584492,8.16435 37.6734501,8.15655008 37.5825194,8.14095 C37.4915887,8.12534992 37.4006594,8.10000018 37.3097287,8.0649 C37.218798,8.02979982 37.1328105,7.9820253 37.0517636,7.921575 C36.9707166,7.8611247 36.9025197,7.78605045 36.8471705,7.69635 L36.8353101,7.69635 L36.8353101,9.25245 L36.3312403,9.25245 L36.3312403,5.07555 Z M37.7841473,7.73145 C37.9541481,7.73145 38.098449,7.69830033 38.2170543,7.632 C38.3356595,7.56569967 38.4305423,7.47795055 38.5017054,7.36875 C38.5728686,7.25954945 38.6242634,7.1347507 38.6558915,6.99435 C38.6875195,6.8539493 38.7033333,6.70965074 38.7033333,6.56145 C38.7033333,6.4210493 38.6845545,6.28357567 38.6469961,6.149025 C38.6094378,6.01447433 38.5521128,5.89455053 38.4750194,5.78925 C38.397926,5.68394947 38.2990898,5.60010031 38.1785078,5.5377 C38.0579258,5.47529969 37.91659,5.4441 37.7544961,5.4441 C37.5844953,5.4441 37.4401944,5.47724967 37.3215891,5.54355 C37.2029839,5.60985033 37.1061244,5.69662446 37.0310078,5.803875 C36.9558911,5.91112554 36.9015312,6.03299932 36.8679264,6.1695 C36.8343215,6.30600068 36.8175194,6.4444493 36.8175194,6.58485 C36.8175194,6.73305074 36.8353099,6.87637431 36.8708915,7.014825 C36.906473,7.15327569 36.9628097,7.27514947 37.0399031,7.38045 C37.1169965,7.48575053 37.2168211,7.57057468 37.3393798,7.634925 C37.4619386,7.69927532 37.6101929,7.73145 37.7841473,7.73145 L37.7841473,7.73145 Z M40.1443798,9.3051 C40.0850772,9.3051 40.0257755,9.30120004 39.9664729,9.2934 C39.9071702,9.28559996 39.8498452,9.2719501 39.7944961,9.25245 L39.7944961,8.79615 C39.8419382,8.81175008 39.890368,8.82734992 39.9397868,8.84295 C39.9892057,8.85855008 40.0396121,8.86635 40.0910078,8.86635 C40.193799,8.86635 40.2768214,8.84295023 40.3400775,8.79615 C40.4033336,8.74934977 40.4586819,8.68110045 40.506124,8.5914 L40.7136822,8.08245 L39.4979845,5.07555 L40.0672868,5.07555 L40.9627519,7.5501 L40.9746124,7.5501 L41.8344961,5.07555 L42.3682171,5.07555 L41.0339147,8.4978 C40.9746121,8.64600074 40.9162987,8.77079949 40.8589729,8.8722 C40.801647,8.97360051 40.7383918,9.05647468 40.6692054,9.120825 C40.600019,9.18517532 40.5229268,9.23197485 40.4379264,9.261225 C40.3529259,9.29047515 40.2550781,9.3051 40.1443798,9.3051 L40.1443798,9.3051 Z M43.921938,8.16435 C43.5147266,8.16435 43.196474,8.0746509 42.9671705,7.89525 C42.7378671,7.7158491 42.6133334,7.46040166 42.5935659,7.1289 L43.1035659,7.1289 C43.1193799,7.35120111 43.2024023,7.51109951 43.3526357,7.6086 C43.502869,7.70610049 43.6906578,7.75485 43.9160078,7.75485 C44.1571717,7.75485 44.3429838,7.70415051 44.4734496,7.60275 C44.6039154,7.50134949 44.6691473,7.37265078 44.6691473,7.21665 C44.6691473,7.06454924 44.6197292,6.94560043 44.5208915,6.8598 C44.4220538,6.77399957 44.2540322,6.7311 44.0168217,6.7311 L43.6076357,6.7311 L43.6076357,6.32745 L43.9337984,6.32745 C44.1117063,6.32745 44.2639141,6.29137536 44.3904264,6.219225 C44.5169386,6.14707464 44.5801938,6.0213009 44.5801938,5.8419 C44.5801938,5.72879943 44.5258339,5.62935043 44.4171124,5.54355 C44.3083909,5.45774957 44.1472879,5.41485 43.9337984,5.41485 C43.8428678,5.41485 43.7529268,5.4245999 43.6639729,5.4441 C43.5750189,5.4636001 43.4949616,5.49479979 43.4237984,5.5377 C43.3526353,5.58060021 43.2933336,5.63714965 43.2458915,5.70735 C43.1984494,5.77755035 43.1687985,5.86334949 43.156938,5.96475 L42.646938,5.96475 C42.6587985,5.77754906 42.7042632,5.62252561 42.7833333,5.499675 C42.8624035,5.37682439 42.9612397,5.27932536 43.079845,5.207175 C43.1984502,5.13502464 43.3328675,5.08335016 43.4831008,5.05215 C43.6333341,5.02094984 43.7855419,5.00535 43.9397287,5.00535 C44.097869,5.00535 44.2461233,5.02094984 44.3844961,5.05215 C44.5228689,5.08335016 44.6444375,5.13307466 44.7492054,5.201325 C44.8539734,5.26957534 44.9369958,5.35439949 44.9982752,5.4558 C45.0595546,5.55720051 45.0901938,5.6780993 45.0901938,5.8185 C45.0901938,5.99400088 45.0397873,6.13634945 44.9389729,6.24555 C44.8381584,6.35475055 44.7244968,6.42299986 44.5979845,6.4503 L44.5979845,6.462 C44.6691476,6.47370006 44.7403097,6.49709982 44.8114729,6.5322 C44.882636,6.56730018 44.9458912,6.6150747 45.0012403,6.675525 C45.0565894,6.7359753 45.1020541,6.81007456 45.1376357,6.897825 C45.1732172,6.98557544 45.1910078,7.08794941 45.1910078,7.20495 C45.1910078,7.36875082 45.1554267,7.5110994 45.0842636,7.632 C45.0131004,7.7529006 44.9182176,7.85234961 44.7996124,7.93035 C44.6810072,8.00835039 44.5456015,8.0668498 44.3933915,8.10585 C44.2411814,8.14485019 44.0840318,8.16435 43.921938,8.16435 L43.921938,8.16435 Z M45.7958915,5.07555 L46.2999612,5.07555 L46.2999612,7.54425 L47.746938,5.07555 L48.3933333,5.07555 L48.3933333,8.1 L47.8892636,8.1 L47.8892636,5.6313 L46.4422868,8.1 L45.7958915,8.1 L45.7958915,5.07555 Z M49.8936822,5.5143 L48.7965891,5.5143 L48.7965891,5.07555 L51.494845,5.07555 L51.494845,5.5143 L50.3977519,5.5143 L50.3977519,8.1 L49.8936822,8.1 L49.8936822,5.5143 Z M53.2027519,8.16435 C52.9576344,8.16435 52.7431598,8.12535039 52.5593217,8.04735 C52.3754836,7.96934961 52.2222874,7.8601507 52.0997287,7.71975 C51.9771699,7.5793493 51.8852522,7.41165097 51.8239729,7.21665 C51.7626935,7.02164902 51.7320543,6.80910115 51.7320543,6.579 C51.7320543,6.35279887 51.7676353,6.14317597 51.8387984,5.950125 C51.9099616,5.75707403 52.0097862,5.5903507 52.1382752,5.44995 C52.2667642,5.3095493 52.418972,5.20035039 52.5949031,5.12235 C52.7708342,5.04434961 52.9635648,5.00535 53.1731008,5.00535 C53.4458928,5.00535 53.6722278,5.06092444 53.8521124,5.172075 C54.031997,5.28322556 54.1762979,5.42459914 54.2850194,5.5962 C54.3937409,5.76780086 54.4688564,5.95499899 54.5103682,6.1578 C54.5518801,6.36060101 54.5686822,6.55364908 54.5607752,6.73695 L52.2657752,6.73695 C52.2618217,6.86955066 52.2776355,6.99532441 52.3132171,7.114275 C52.3487986,7.23322559 52.4061236,7.33852454 52.4851938,7.430175 C52.564264,7.52182546 52.6650769,7.59494973 52.7876357,7.64955 C52.9101944,7.70415027 53.0544953,7.73145 53.2205426,7.73145 C53.4340321,7.73145 53.6089722,7.68270049 53.7453682,7.5852 C53.8817642,7.48769951 53.9717052,7.33950099 54.0151938,7.1406 L54.5133333,7.1406 C54.4461237,7.48380172 54.2978694,7.74022415 54.0685659,7.909875 C53.8392624,8.07952585 53.5506607,8.16435 53.2027519,8.16435 L53.2027519,8.16435 Z M54.0270543,6.2982 C54.0191472,6.18119941 53.9924615,6.07005053 53.9469961,5.96475 C53.9015308,5.85944947 53.8402523,5.76877538 53.7631589,5.692725 C53.6860655,5.61667462 53.5951362,5.55622522 53.4903682,5.511375 C53.3856003,5.46652478 53.2699619,5.4441 53.1434496,5.4441 C53.0129838,5.4441 52.8953687,5.46652478 52.7906008,5.511375 C52.6858328,5.55622522 52.5958918,5.61764961 52.5207752,5.69565 C52.4456585,5.77365039 52.3863568,5.86432448 52.3428682,5.967675 C52.2993796,6.07102552 52.2736822,6.18119941 52.2657752,6.2982 L54.0270543,6.2982 Z M56.7312403,5.07555 L58.1485659,5.07555 C58.2829852,5.07555 58.4124606,5.0852999 58.5369961,5.1048 C58.6615316,5.1243001 58.7732166,5.16037474 58.8720543,5.213025 C58.970892,5.26567526 59.0499609,5.34074951 59.1092636,5.43825 C59.1685662,5.53575049 59.1982171,5.66054924 59.1982171,5.81265 C59.1982171,5.97645082 59.1586826,6.10904949 59.0796124,6.21045 C59.0005422,6.31185051 58.8898457,6.39569967 58.7475194,6.462 L58.7475194,6.46785 C58.9254272,6.50295018 59.066763,6.58484936 59.171531,6.71355 C59.276299,6.84225064 59.3286822,7.00799899 59.3286822,7.2108 C59.3286822,7.33950064 59.3059498,7.45844945 59.2604845,7.56765 C59.2150192,7.67685055 59.1507756,7.77044961 59.0677519,7.84845 C58.9847283,7.92645039 58.885892,7.98787478 58.7712403,8.032725 C58.6565886,8.07757522 58.5320549,8.1 58.3976357,8.1 L56.7312403,8.1 L56.7312403,5.07555 Z M58.3027519,7.6788 C58.4687993,7.6788 58.5943213,7.63102548 58.6793217,7.535475 C58.7643221,7.43992452 58.8068217,7.32000072 58.8068217,7.1757 C58.8068217,7.03919932 58.761357,6.93000041 58.6704264,6.8481 C58.5794957,6.76619959 58.4272879,6.72525 58.2137984,6.72525 L57.2293798,6.72525 L57.2293798,7.6788 L58.3027519,7.6788 Z M58.0951938,6.31575 C58.3126367,6.31575 58.4638562,6.27675039 58.5488566,6.19875 C58.633857,6.12074961 58.6763566,6.01740064 58.6763566,5.8887 C58.6763566,5.76389938 58.6348454,5.66737534 58.5518217,5.599125 C58.468798,5.53087466 58.3165903,5.49675 58.0951938,5.49675 L57.2293798,5.49675 L57.2293798,6.31575 L58.0951938,6.31575 Z" id="Загрузите-в--Copy" fill="#FFFFFF"></path>
                </g>
            </g>
        </g>
    </g>
</svg>