<?xml version="1.0" encoding="UTF-8" standalone="no"?>
<svg width="84px" height="25px" viewBox="0 0 84 25" version="1.1" xmlns="http://www.w3.org/2000/svg" xmlns:xlink="http://www.w3.org/1999/xlink">
    <!-- Generator: sketchtool 3.8.3 (29802) - http://www.bohemiancoding.com/sketch -->
    <title>7A1A68A9-3852-4DC6-B327-760BE22EC0B7</title>
    <desc>Created with sketchtool.</desc>
    <defs>
        <linearGradient x1="29.5315068%" y1="-6.0957265%" x2="55.0940639%" y2="92.1559829%" id="linearGradient-1">
            <stop stop-color="#006884" offset="0%"></stop>
            <stop stop-color="#8AD1D0" offset="100%"></stop>
        </linearGradient>
        <linearGradient x1="-7.52792208%" y1="15.7589744%" x2="91.537013%" y2="86.2504274%" id="linearGradient-2">
            <stop stop-color="#24BBB6" offset="0%"></stop>
            <stop stop-color="#DBE692" offset="100%"></stop>
        </linearGradient>
        <linearGradient x1="49.9404255%" y1="105.754795%" x2="49.9404255%" y2="-3.12739726%" id="linearGradient-3">
            <stop stop-color="#FCC072" offset="0%"></stop>
            <stop stop-color="#F58A5B" offset="100%"></stop>
        </linearGradient>
        <linearGradient x1="11.1493421%" y1="117.837069%" x2="90.4368421%" y2="12.1025862%" id="linearGradient-4">
            <stop stop-color="#712B8F" offset="0%"></stop>
            <stop stop-color="#EA1D27" offset="100%"></stop>
        </linearGradient>
    </defs>
    <g id="controls" stroke="none" stroke-width="1" fill="none" fill-rule="evenodd">
        <g id="иконки" transform="translate(-1075.000000, -1724.000000)">
            <g id="google-play-badge-copy" transform="translate(1075.000000, 1724.000000)">
                <g id="Group">
                    <rect id="Rectangle-62" fill="#222222" x="0" y="0" width="84" height="25" rx="3"></rect>
                    <g transform="translate(7.000000, 5.000000)" id="Shape">
                        <path d="M0,7 L0,1 C0,0.320512821 0.319634703,0 1,0 C0.95890411,0 1.08675799,0.0641025641 1,0 L14,7 C13.8721461,7.11538462 14,7.30769231 14,8 C14,7.69230769 13.8721461,7.88461538 14,8 L1,15 C1.15068493,14.8717949 0.95890411,15 1,15 C0.319634703,15 0,14.6794872 0,14 L0,7 L0,7 Z" fill="url(#linearGradient-1)"></path>
                        <path d="M7.66976744,7.8097561 L0.141860465,0.390243902 L0.270542636,0.390243902 C0.592248062,0.390243902 0.720930233,0.453658537 0.913953488,0.580487805 L10.0503876,5.52682927 L7.66976744,7.8097561 L7.66976744,7.8097561 Z" fill="url(#linearGradient-2)"></path>
                        <path d="M9.98604651,10.0292683 L7.66976744,7.74634146 L10.0503876,5.4 L13.3317829,7.17560976 C13.5891473,7.30243902 13.7178295,7.49268293 13.7178295,7.68292683 C13.7178295,7.87317073 13.5891473,8.06341463 13.3317829,8.1902439 L9.98604651,10.0292683 L9.98604651,10.0292683 Z" fill="url(#linearGradient-3)"></path>
                        <path d="M0.20620155,15.102439 L0.20620155,15.102439 L7.66976744,7.74634146 L9.98604651,10.0292683 L0.913953488,14.9121951 C0.720930233,15.0390244 0.592248062,15.102439 0.20620155,15.102439 L0.20620155,15.102439 L0.20620155,15.102439 Z" fill="url(#linearGradient-4)"></path>
                    </g>
                    <path d="M46.0682171,17.8146341 C45.7465116,17.5609756 45.4891473,17.1170732 45.3604651,16.8634146 L46.3899225,16.4195122 C46.4542636,16.5463415 46.5829457,16.7365854 46.7116279,16.9268293 C46.9689922,17.1804878 47.3550388,17.4341463 47.7410853,17.4341463 C48.1271318,17.4341463 48.5775194,17.2439024 48.8348837,16.9268293 C49.027907,16.6097561 49.1565891,16.2926829 49.1565891,15.8487805 L49.1565891,15.4682927 C48.3844961,16.4195122 46.775969,16.2926829 45.8751938,15.2780488 C44.9100775,14.2634146 44.9100775,12.5512195 45.8751938,11.5365854 C46.8403101,10.5853659 48.255814,10.4585366 49.0922481,11.3463415 L49.0922481,11.3463415 L49.0922481,10.902439 L50.1860465,10.902439 L50.1860465,15.6585366 C50.1860465,16.8634146 49.7356589,17.5609756 49.1565891,18.004878 C48.7705426,18.3219512 48.1914729,18.4487805 47.6767442,18.4487805 C47.0976744,18.3853659 46.5186047,18.195122 46.0682171,17.8146341 L46.0682171,17.8146341 L46.0682171,17.8146341 Z M73.0271318,18.0682927 L73.0271318,18.0682927 L74.1209302,15.5317073 L72.1906977,11.1560976 L73.2844961,11.1560976 L74.6356589,14.2634146 L75.9868217,11.1560976 L77.0806202,11.1560976 L74.1209302,18.0682927 L73.0271318,18.0682927 L73.0271318,18.0682927 L73.0271318,18.0682927 Z M67.8155039,15.6585366 L67.8155039,15.6585366 C67.4937984,15.3414634 67.3651163,14.897561 67.3651163,14.4536585 C67.3651163,14.0731707 67.4937984,13.6926829 67.7511628,13.4390244 C68.2015504,12.995122 68.8449612,12.804878 69.5527132,12.804878 C70.0031008,12.804878 70.3891473,12.8682927 70.7108527,13.0585366 C70.7108527,12.297561 70.0674419,11.9804878 69.5527132,11.9804878 C69.1023256,11.9804878 68.651938,12.2341463 68.4589147,12.6780488 L67.4937984,12.297561 C67.6868217,11.8536585 68.2015504,11.0292683 69.4883721,11.0292683 C70.1317829,11.0292683 70.7751938,11.2195122 71.1612403,11.6634146 C71.5472868,12.1073171 71.675969,12.6146341 71.675969,13.3121951 L71.675969,15.9756098 L70.5821705,15.9756098 L70.5821705,15.5317073 C70.4534884,15.7219512 70.196124,15.8487805 70.0031008,15.9756098 C69.7457364,16.102439 69.424031,16.1658537 69.1023256,16.1658537 C68.7162791,16.102439 68.1372093,15.9756098 67.8155039,15.6585366 L67.8155039,15.6585366 L67.8155039,15.6585366 Z M33.5217054,13.3756098 L33.5217054,13.3756098 C33.5217054,12.1073171 34.4868217,10.7121951 36.224031,10.7121951 C37.8968992,10.7121951 38.9263566,12.1073171 38.9263566,13.3756098 C38.9263566,14.6439024 37.9612403,16.0390244 36.224031,16.0390244 C34.4868217,16.0390244 33.5217054,14.6439024 33.5217054,13.3756098 L33.5217054,13.3756098 L33.5217054,13.3756098 Z M39.3124031,13.3756098 L39.3124031,13.3756098 C39.3124031,12.1073171 40.2775194,10.7121951 42.0147287,10.7121951 C43.6875969,10.7121951 44.7170543,12.1073171 44.7170543,13.3756098 C44.7170543,14.6439024 43.751938,16.0390244 42.0147287,16.0390244 C40.3418605,16.0390244 39.3124031,14.6439024 39.3124031,13.3756098 L39.3124031,13.3756098 L39.3124031,13.3756098 Z M26.2511628,14.7707317 L26.2511628,14.7707317 C24.6426357,13.1853659 24.7069767,10.5853659 26.3155039,8.93658537 C27.151938,8.11219512 28.1813953,7.73170732 29.2751938,7.73170732 C30.3046512,7.73170732 31.3341085,8.11219512 32.1062016,8.87317073 L31.3341085,9.69756098 C30.175969,8.55609756 28.3100775,8.6195122 27.2162791,9.76097561 C26.0581395,10.9658537 26.0581395,12.804878 27.2162791,14.0097561 C28.3744186,15.2146341 30.3046512,15.2780488 31.4627907,14.0731707 C31.8488372,13.6926829 31.9775194,13.1853659 32.0418605,12.6780488 L29.3395349,12.6780488 L29.3395349,11.5365854 L33.1356589,11.5365854 C33.2,11.7902439 33.2,12.1073171 33.2,12.4243902 C33.2,13.3756098 32.8139535,14.3268293 32.1705426,14.9609756 C31.4627907,15.6585366 30.4333333,16.0390244 29.403876,16.0390244 C28.2457364,15.9756098 27.0875969,15.595122 26.2511628,14.7707317 L26.2511628,14.7707317 L26.2511628,14.7707317 Z M53.4674419,15.2146341 L53.4674419,15.2146341 C52.5023256,14.2 52.5023256,12.4878049 53.4674419,11.4097561 C54.4325581,10.395122 56.0410853,10.395122 56.9418605,11.4097561 C57.2635659,11.7268293 57.4565891,12.1707317 57.6496124,12.6146341 L54.1108527,14.0731707 C54.303876,14.5170732 54.7542636,14.897561 55.3976744,14.897561 C55.9767442,14.897561 56.3627907,14.7073171 56.7488372,14.1365854 L57.7139535,14.7707317 L57.7139535,14.7707317 C57.5852713,14.897561 57.4565891,15.0243902 57.3922481,15.1512195 C56.2984496,16.2292683 54.4325581,16.2292683 53.4674419,15.2146341 L53.4674419,15.2146341 L53.4674419,15.2146341 Z M60.1589147,15.9756098 L60.1589147,15.9756098 L60.1589147,8.93658537 L62.4751938,8.93658537 C63.8263566,8.93658537 64.920155,9.88780488 64.920155,11.0292683 C64.920155,12.1707317 63.9550388,13.1219512 62.7325581,13.1219512 L61.3170543,13.1219512 L61.3170543,15.9121951 L60.1589147,15.9121951 L60.1589147,15.9756098 L60.1589147,15.9756098 Z M65.5635659,15.9756098 L65.5635659,15.9756098 L65.5635659,8.93658537 L66.6573643,8.93658537 L66.6573643,15.9756098 L65.5635659,15.9756098 L65.5635659,15.9756098 L65.5635659,15.9756098 Z M51.0224806,15.8487805 L51.0224806,15.8487805 L51.0224806,7.98536585 L52.1806202,7.98536585 L52.1806202,15.8487805 L51.0224806,15.8487805 L51.0224806,15.8487805 L51.0224806,15.8487805 Z M70.6465116,13.8829268 L70.6465116,13.8829268 C70.3891473,13.6926829 70.0031008,13.6292683 69.6170543,13.6292683 C68.8449612,13.6292683 68.3945736,14.0097561 68.3945736,14.4536585 C68.3945736,14.897561 68.8449612,15.1512195 69.2953488,15.1512195 C69.9387597,15.1512195 70.6465116,14.6439024 70.6465116,13.8829268 L70.6465116,13.8829268 L70.6465116,13.8829268 Z M37.703876,13.3756098 L37.703876,13.3756098 C37.703876,12.6146341 37.1891473,11.7902439 36.224031,11.7902439 C35.2589147,11.7902439 34.744186,12.6146341 34.744186,13.3756098 C34.744186,14.1365854 35.2589147,14.9609756 36.224031,14.9609756 C37.1248062,14.9609756 37.703876,14.1365854 37.703876,13.3756098 L37.703876,13.3756098 L37.703876,13.3756098 Z M43.4945736,13.3756098 L43.4945736,13.3756098 C43.4945736,12.6146341 42.979845,11.7902439 42.0147287,11.7902439 C41.0496124,11.7902439 40.5348837,12.6146341 40.5348837,13.3756098 C40.5348837,14.1365854 41.0496124,14.9609756 42.0147287,14.9609756 C42.979845,14.9609756 43.4945736,14.1365854 43.4945736,13.3756098 L43.4945736,13.3756098 L43.4945736,13.3756098 Z M49.2209302,13.8195122 L49.2209302,13.8195122 C49.2209302,13.7560976 49.2209302,13.6926829 49.2852713,13.6292683 L49.2852713,13.6292683 L49.2852713,13.3756098 L49.2852713,13.1219512 L49.2852713,13.0585366 C49.2852713,12.995122 49.2209302,12.8682927 49.2209302,12.804878 C49.027907,12.1707317 48.4488372,11.7268293 47.8697674,11.7268293 C47.0976744,11.7268293 46.4542636,12.4878049 46.4542636,13.3121951 C46.4542636,14.2 47.0976744,14.897561 47.9341085,14.897561 C48.4488372,14.9609756 48.9635659,14.5170732 49.2209302,13.8195122 L49.2209302,13.8195122 L49.2209302,13.8195122 Z M53.9178295,13.2487805 L53.9178295,13.2487805 L56.2984496,12.2341463 C56.0410853,11.7902439 55.6550388,11.6634146 55.3333333,11.6634146 C54.3682171,11.7268293 53.7891473,12.7414634 53.9178295,13.2487805 L53.9178295,13.2487805 L53.9178295,13.2487805 Z M63.7620155,11.0926829 L63.7620155,11.0926829 C63.7620155,10.4585366 63.2472868,10.0146341 62.5395349,10.0146341 L61.2527132,10.0146341 L61.2527132,12.2341463 L62.603876,12.2341463 C63.2472868,12.2341463 63.7620155,11.7268293 63.7620155,11.0926829 L63.7620155,11.0926829 Z" id="Shape" fill="#FFFFFF"></path>
                </g>
            </g>
        </g>
    </g>
</svg>