<svg width="0" height="0" class="hidden">
  <!-- **************** main icons ****************** -->
<!-- birthday -->
  <symbol id="birthday" xmlns="http://www.w3.org/2000/svg" viewBox="0 0 302 195">
    <title id="logo-birthday">Нам 35 лет</title>
    <path d="M135.15 121.248C123.49 133.854 110.236 142.253 95.388 146.445C80.5557 150.58 63.8505 150.058 45.2725 144.879C42.33 144.059 38.9581 142.994 35.1568 141.686C31.3394 140.435 27.41 139.029 23.3685 137.467C19.327 135.905 15.2888 134.22 11.2539 132.411C7.26067 130.676 3.59611 128.877 0.260229 127.014C5.1678 121.232 9.25486 115.158 12.5214 108.794C15.8618 102.388 18.5854 95.4059 20.6925 87.8478C24.9693 91.4651 29.6439 94.8824 34.7163 98.0996C39.7887 101.317 44.9334 104.275 50.1505 106.973C55.4414 109.629 60.6604 111.985 65.8076 114.042C71.0125 116.115 75.8858 117.816 80.4277 119.144C80.5242 118.798 80.6415 118.488 80.7797 118.216C80.9178 117.944 81.0351 117.634 81.1316 117.288C82.1288 113.711 82.2809 110.489 81.5878 107.622C80.9108 104.697 79.767 102.109 78.1564 99.8568C76.6035 97.6207 74.773 95.7113 72.6648 94.1287C70.5566 92.5461 68.5572 91.2426 66.6665 90.2181C64.7758 89.1936 63.175 88.4675 61.8641 88.0399C60.627 87.5706 60.0661 87.3521 60.1815 87.3842L65.0183 68.0268C69.493 69.1499 73.5114 69.6794 77.0735 69.6154C80.6356 69.5514 83.7877 69.0621 86.5298 68.1477C89.3296 67.2494 91.7161 66.0493 93.6893 64.5474C95.7363 63.004 97.4451 61.3351 98.8158 59.541C100.244 57.7629 101.376 55.9332 102.211 54.052C103.104 52.1868 103.776 50.4465 104.226 48.831C104.355 48.3695 104.447 47.9287 104.502 47.5087C104.573 47.0311 104.673 46.5615 104.801 46.0999C98.8198 44.8055 92.7868 43.8076 86.7021 43.1062C80.6752 42.4209 74.6303 42.1348 68.5673 42.2478C62.5621 42.3769 56.5516 42.9709 50.5359 44.0297C44.5202 45.0886 38.5167 46.7727 32.5255 49.082C33.5363 41.2182 33.6173 33.344 32.7686 25.4593C31.9199 17.5745 30.3755 9.62025 28.1354 1.59638C32.6982 1.06518 37.769 0.831024 43.3476 0.893908C48.984 0.972876 54.6217 1.26986 60.2609 1.78487C65.9738 2.25827 71.4701 2.95108 76.7498 3.86332C82.1032 4.73394 86.7416 5.71612 90.6649 6.80985C98.8577 9.09382 106.554 12.2654 113.755 16.3247C120.955 20.3839 127.366 25.1558 132.988 30.6403C138.626 36.0672 143.288 42.0927 146.976 48.7168C150.679 55.2832 153.143 62.2813 154.367 69.7111L142.769 62.4673C141.93 65.0314 140.835 67.3997 139.483 69.5723C138.147 71.6871 136.642 73.6302 134.966 75.4017C133.307 77.1154 131.544 78.6447 129.677 79.9896C127.81 81.3344 125.962 82.4981 124.133 83.4807C119.87 85.8365 115.287 87.6678 110.384 88.9746C113.49 92.3279 116.134 95.894 118.314 99.6728C119.229 101.296 120.084 103.026 120.877 104.864C121.728 106.718 122.374 108.639 122.815 110.628C123.313 112.632 123.577 114.695 123.607 116.818C123.711 118.899 123.494 121.015 122.957 123.165C124.938 122.972 126.936 122.72 128.95 122.411C131.021 122.118 133.088 121.73 135.15 121.248ZM262.765 170.349C259.779 175.485 256.027 179.911 251.509 183.626C247.049 187.357 241.83 190.13 235.852 191.946C229.916 193.835 223.253 194.651 215.863 194.394C208.514 194.211 200.488 192.782 191.782 190.106C183.134 187.447 173.84 183.426 163.9 178.043C153.943 172.718 143.389 165.858 132.236 157.464L158.733 117.283C160.054 120.574 161.898 123.886 164.264 127.219C166.688 130.569 169.399 133.781 172.397 136.855C175.469 139.888 178.75 142.73 182.239 145.381C185.728 148.033 189.256 150.322 192.822 152.249C196.463 154.134 199.998 155.617 203.427 156.698C206.931 157.737 210.159 158.201 213.112 158.092C216.123 157.998 218.759 157.241 221.02 155.82C223.282 154.398 225.02 152.178 226.235 149.159C227.231 146.701 227.375 144.067 226.665 141.258C225.956 138.448 224.58 135.578 222.538 132.645C220.552 129.729 218.029 126.849 214.966 124.006C211.92 121.105 208.529 118.325 204.793 115.667C201.115 113.025 197.199 110.565 193.046 108.288C188.95 106.027 184.832 104.071 180.692 102.419C176.625 100.726 172.671 99.4058 168.831 98.4596C164.991 97.5135 161.479 97.063 158.295 97.1081C161.891 94.6908 166.106 93.0676 170.938 92.2385L185.132 54.0375C183.057 51.2206 181.195 48.3077 179.547 45.2988C177.972 42.2483 176.614 38.9783 175.473 35.489C185.059 39.4671 194.943 43.1553 205.126 46.5536C215.325 49.8943 225.739 52.7975 236.368 55.2633C246.998 57.729 257.78 59.6467 268.715 61.0162C279.707 62.4019 290.725 63.1415 301.767 63.2351C297.166 69.4764 293.242 75.9684 289.995 82.7112C286.821 89.4123 284.126 96.4024 281.91 103.682C268.387 100.222 256.018 96.5254 244.803 92.5907C233.604 88.5983 223.633 84.1084 214.888 79.1212L208.201 96.7504C212.092 97.9595 215.683 99.2405 218.975 100.593C222.324 101.962 225.24 103.211 227.724 104.338C230.637 105.71 233.32 107.017 235.771 108.26C241.427 111.392 246.212 114.747 250.127 118.325C254.115 121.862 257.323 125.523 259.75 129.309C262.25 133.052 264.06 136.821 265.178 140.615C266.355 144.425 267.004 148.119 267.125 151.698C267.263 155.218 266.919 158.573 266.092 161.762C265.322 164.968 264.214 167.83 262.765 170.349Z"></path>
  </symbol>
  <!-- logo -->
  <symbol id="logo" xmlns="http://www.w3.org/2000/svg" viewBox="0 0 965 465">
    <title id="logo-title">Компания "Lomoda"</title>
    <path d="M474.265 188.489C471.989 193.161 470.073 197.653 468.515 201.966C466.958 206.278 465.7 210.411 464.742 214.364C463.784 218.317 463.095 222.121 462.676 225.774C462.316 229.428 462.136 232.902 462.136 236.196C462.136 242.665 462.825 248.595 464.203 253.985C465.64 259.316 467.467 264.197 469.683 268.63C471.899 273.002 474.385 276.955 477.14 280.489C479.955 284.023 482.741 287.168 485.496 289.923C483.1 289.923 480.884 289.803 478.847 289.563C476.871 289.324 474.685 289.204 472.289 289.204C469.713 289.204 467.198 289.384 464.742 289.743C462.286 290.043 459.771 290.492 457.195 291.091C454.679 291.75 452.044 292.558 449.289 293.516C446.534 294.475 443.569 295.613 440.394 296.931C437.639 289.803 435.423 282.675 433.746 275.548C432.069 268.42 430.871 261.293 430.152 254.165C427.157 260.095 424.642 266.294 422.605 272.763C420.569 279.231 419.101 286.179 418.203 293.606C417.484 293.606 415.957 293.636 413.621 293.696C411.345 293.756 408.53 293.906 405.176 294.145C401.881 294.445 398.258 294.894 394.304 295.493C390.351 296.152 386.398 297.05 382.445 298.188C381.607 290.162 380.199 282.615 378.222 275.548C376.246 268.42 373.73 261.682 370.676 255.333C369.957 262.221 368.729 269.139 366.992 276.087C365.255 283.035 363.039 289.983 360.344 296.931C348.005 291.78 335.696 289.204 323.418 289.204C321.561 289.204 319.345 289.324 316.769 289.563C314.194 289.743 311.618 289.923 309.043 290.102C318.446 281.058 325.574 270.936 330.426 259.735C335.337 248.475 337.793 235.957 337.793 222.181C337.793 220.623 337.733 218.976 337.613 217.239C337.493 215.442 337.344 213.585 337.164 211.669C332.672 207.416 327.88 203.253 322.789 199.181C317.758 195.108 312.427 190.945 306.797 186.692C309.312 187.171 312.666 187.83 316.859 188.669C321.112 189.447 326.173 189.837 332.043 189.837C337.134 189.837 342.764 189.328 348.933 188.309C355.103 187.291 361.631 185.345 368.519 182.47C372.472 187.92 376.396 194.209 380.289 201.337C383.643 207.446 387.147 214.783 390.801 223.349C394.514 231.854 397.868 241.407 400.863 252.009L407.152 236.376C409.189 231.285 411.135 226.373 412.992 221.641C414.909 216.91 416.676 212.268 418.293 207.716C419.97 203.104 421.467 198.492 422.785 193.88C424.163 189.208 425.39 184.356 426.469 179.325C430.781 181.601 435.183 183.368 439.676 184.626C444.168 185.884 448.51 186.812 452.703 187.411C456.955 187.95 460.939 188.28 464.652 188.399C468.366 188.459 471.57 188.489 474.265 188.489ZM603.91 186.692C601.814 188.369 599.837 190.136 597.98 191.993C596.123 193.79 594.357 195.707 592.679 197.743C598.31 198.821 603.64 200.558 608.672 202.954C613.703 205.29 618.075 208.255 621.789 211.849C625.502 215.442 628.437 219.635 630.594 224.427C632.81 229.158 633.918 234.429 633.918 240.239C633.918 246.828 632.81 252.787 630.594 258.118C628.437 263.389 625.413 268.121 621.519 272.313C617.686 276.446 613.134 280.04 607.863 283.095C602.592 286.089 596.872 288.575 590.703 290.552C584.534 292.468 578.035 293.906 571.207 294.864C564.379 295.822 557.491 296.302 550.543 296.302C548.087 296.302 545.541 296.242 542.906 296.122C540.271 296.062 537.695 295.942 535.179 295.763C532.724 295.583 530.418 295.313 528.261 294.954C526.165 294.655 524.398 294.265 522.961 293.786C524.638 292.408 526.225 291.031 527.722 289.653C529.28 288.216 530.687 286.778 531.945 285.341C526.255 284.263 520.894 282.645 515.863 280.489C510.892 278.333 506.519 275.578 502.746 272.224C498.972 268.809 495.978 264.826 493.761 260.274C491.605 255.662 490.527 250.391 490.527 244.462C490.527 237.514 491.785 231.255 494.301 225.684C496.876 220.054 500.38 215.053 504.812 210.681C509.245 206.308 514.455 202.565 520.445 199.45C526.435 196.335 532.873 193.76 539.761 191.724C546.649 189.687 553.807 188.19 561.234 187.231C568.721 186.273 576.148 185.794 583.515 185.794C586.57 185.794 589.685 185.884 592.859 186.063C596.094 186.183 599.478 186.393 603.011 186.692L603.91 186.692ZM594.926 233.95C594.926 228.859 593.817 224.696 591.601 221.462C589.445 218.227 586.57 215.652 582.976 213.735C582.317 215.293 581.689 216.91 581.09 218.587C580.491 220.204 579.952 221.881 579.472 223.618C575.28 222.42 571.746 221.612 568.871 221.192C566.056 220.773 563.69 220.563 561.773 220.563C558 220.563 554.196 221.192 550.363 222.45C546.53 223.708 543.086 225.535 540.031 227.931C536.976 230.266 534.461 233.141 532.484 236.556C530.567 239.91 529.609 243.713 529.609 247.966C529.609 252.039 530.627 255.782 532.664 259.196C534.76 262.55 537.485 265.665 540.84 268.54C541.379 266.683 541.768 264.796 542.008 262.88C542.307 260.963 542.517 258.987 542.636 256.95C547.069 258.987 550.992 260.394 554.406 261.173C557.82 261.951 560.815 262.341 563.39 262.341C567.344 262.341 571.207 261.712 574.98 260.454C578.754 259.136 582.108 257.25 585.043 254.794C588.038 252.338 590.433 249.373 592.23 245.899C594.027 242.365 594.926 238.382 594.926 233.95ZM778.926 231.524C779.045 232.543 779.135 233.561 779.195 234.579C779.255 235.597 779.285 236.615 779.285 237.634C779.285 242.964 778.357 248.115 776.5 253.087C774.703 258.058 772.157 262.73 768.863 267.102C765.569 271.475 761.646 275.488 757.094 279.141C752.541 282.735 747.57 285.85 742.179 288.485C736.789 291.061 731.039 293.067 724.929 294.505C718.82 295.942 712.591 296.661 706.242 296.661C701.57 296.661 696.838 296.182 692.047 295.224C687.315 294.265 682.703 292.498 678.211 289.923C673.539 290.462 668.597 291.39 663.386 292.708C658.176 294.026 652.695 295.553 646.945 297.29C651.677 284.592 655.42 271.834 658.176 259.016C660.931 246.139 662.398 233.112 662.578 219.934C658.685 221.671 654.821 223.828 650.988 226.403C651.288 224.307 651.527 222.48 651.707 220.923C651.886 219.365 651.976 218.078 651.976 217.059C651.976 205.02 648.472 194.599 641.465 185.794C643.501 185.195 645.867 184.656 648.562 184.177C651.317 183.697 654.252 183.248 657.367 182.829C660.482 182.41 663.656 182.05 666.89 181.751C670.185 181.451 673.359 181.212 676.414 181.032C679.528 180.793 682.433 180.643 685.129 180.583C687.824 180.463 690.13 180.403 692.047 180.403C704.086 180.403 715.017 181.691 724.84 184.266C734.722 186.842 743.168 190.376 750.176 194.868C757.183 199.3 762.574 204.511 766.347 210.501C770.181 216.431 772.097 222.78 772.097 229.548C772.097 230.266 772.067 230.955 772.008 231.614C771.948 232.273 771.918 232.932 771.918 233.591C774.254 233.052 776.59 232.363 778.926 231.524ZM739.125 237.454C737.747 233.082 735.561 229.428 732.566 226.493C729.571 223.498 726.217 221.072 722.504 219.216C718.79 217.359 714.927 215.981 710.914 215.083C706.961 214.125 703.307 213.496 699.953 213.196C699.594 224.816 699.414 236.406 699.414 247.966C699.414 253.117 699.444 258.298 699.504 263.509C699.623 268.66 699.773 273.841 699.953 279.052C704.625 277.554 708.997 275.578 713.07 273.122C717.143 270.666 720.587 267.701 723.402 264.227C726.277 260.753 728.403 256.8 729.781 252.368C731.159 247.936 731.518 243.024 730.859 237.634C732.057 237.634 733.345 237.634 734.722 237.634C736.16 237.634 737.627 237.574 739.125 237.454ZM928.156 257.13C925.64 258.328 923.155 259.496 920.699 260.634C918.243 261.712 915.758 262.76 913.242 263.778C918.752 273.721 924.832 283.095 931.48 291.899C922.196 291.899 913.332 292.798 904.886 294.595C896.441 296.451 887.876 299.296 879.191 303.13C879.85 301.572 880.239 299.955 880.359 298.278C880.539 296.661 880.629 294.984 880.629 293.247C880.629 290.372 880.359 287.227 879.82 283.813C879.281 280.339 878.472 276.716 877.394 272.942C874.879 273.302 872.363 273.571 869.847 273.751C867.332 273.871 864.876 273.931 862.48 273.931C858.228 273.931 854.035 273.691 849.902 273.212C845.829 272.673 841.906 271.804 838.133 270.606C837.114 275.039 836.186 279.591 835.347 284.263C834.509 288.875 833.67 293.636 832.832 298.548C829.777 296.99 826.423 295.583 822.769 294.325C819.655 293.307 816.031 292.349 811.898 291.45C807.825 290.552 803.513 290.102 798.961 290.102C795.067 290.102 790.935 290.432 786.562 291.091C782.19 291.75 777.368 292.828 772.097 294.325C776.17 290.312 779.974 286.239 783.508 282.106C787.101 277.914 790.366 273.901 793.301 270.067C796.295 266.174 798.931 262.55 801.207 259.196C803.543 255.782 805.489 252.817 807.047 250.302C805.31 248.205 803.692 245.959 802.195 243.563C800.758 241.168 799.38 238.592 798.062 235.837C800.458 237.035 802.824 238.143 805.16 239.161C807.496 240.119 809.802 241.018 812.078 241.856C814.833 237.005 817.738 232.123 820.793 227.212C823.847 222.3 827.112 217.509 830.586 212.837C829.867 211.1 828.939 209.123 827.801 206.907C826.722 204.691 825.524 202.415 824.207 200.079C822.949 197.683 821.601 195.317 820.164 192.981C818.726 190.645 817.319 188.489 815.941 186.513C821.691 188.07 827.441 189.298 833.191 190.196C839.001 191.095 844.781 191.694 850.531 191.993C853.825 189.298 857.269 186.842 860.863 184.626C864.457 182.35 868.23 180.343 872.183 178.606C870.926 180.703 869.698 182.859 868.5 185.075C867.302 187.291 866.134 189.537 864.996 191.813C867.991 191.514 871.015 191.184 874.07 190.825C877.125 190.406 880.299 189.867 883.594 189.208C885.81 197.294 888.235 205.17 890.871 212.837C893.506 220.503 896.351 228.05 899.406 235.477C902.041 233.98 904.647 232.453 907.222 230.895C909.858 229.278 912.463 227.541 915.039 225.684C916.896 231.974 918.902 237.753 921.058 243.024C923.215 248.295 925.58 252.997 928.156 257.13ZM867.961 247.606C865.864 242.934 863.558 238.233 861.043 233.501C858.587 228.709 855.922 223.888 853.047 219.036C849.513 228.5 846.278 238.562 843.344 249.224C844.422 249.343 845.47 249.403 846.488 249.403C847.566 249.403 848.644 249.403 849.722 249.403C852.777 249.403 855.802 249.283 858.797 249.044C861.851 248.744 864.906 248.265 867.961 247.606Z"></path>
    <path d="M137.053 284.639C127.855 280.831 118.988 277.395 110.453 274.332C101.934 271.211 93.3762 268.452 84.7795 266.055C74.8558 263.289 64.7619 260.91 54.4976 258.919C44.2911 256.944 33.5888 255.298 22.391 253.979C25.396 253.014 28.3931 252.077 31.382 251.169C34.3871 250.204 37.4257 249.341 40.4979 248.581C43.405 242.614 45.9707 236.645 48.1949 230.674C50.4928 224.661 52.4943 218.597 54.1992 212.481C56.7566 203.307 58.6968 194.117 60.0199 184.91C61.359 175.646 62.2655 166.261 62.7392 156.755L71.0474 159.071C77.3939 160.84 83.837 162.263 90.3765 163.34C96.9738 164.433 104.108 165.272 111.78 165.856C108.097 179.068 103.724 191.964 98.6631 204.544C93.6178 217.065 87.6253 229.416 80.6855 241.597C90.9973 240.74 101.44 240.418 112.014 240.63C122.645 240.858 133.638 241.684 144.993 243.109C144.061 245.336 143.179 247.608 142.346 249.926C141.572 252.259 140.846 254.637 140.171 257.06C138.884 261.676 137.939 266.294 137.335 270.913C136.805 275.491 136.711 280.066 137.053 284.639ZM279.273 215.441C276.803 216.493 274.425 217.664 272.138 218.954C269.867 220.187 267.65 221.558 265.488 223.07C270.622 225.62 275.29 228.725 279.493 232.384C283.712 235.985 287.128 240.015 289.74 244.474C292.352 248.933 294.053 253.76 294.844 258.954C295.708 264.108 295.36 269.482 293.799 275.079C292.03 281.425 289.362 286.869 285.796 291.408C282.304 295.907 278.119 299.652 273.243 302.646C268.441 305.597 263.091 307.836 257.193 309.364C251.312 310.833 245.135 311.691 238.661 311.939C232.204 312.128 225.558 311.768 218.723 310.857C211.888 309.947 205.125 308.559 198.432 306.693C196.066 306.033 193.63 305.292 191.124 304.469C188.601 303.704 186.153 302.897 183.778 302.048C181.46 301.215 179.312 300.337 177.331 299.411C175.392 298.56 173.795 297.71 172.539 296.863C174.524 295.986 176.423 295.085 178.235 294.16C180.121 293.194 181.863 292.187 183.461 291.14C178.269 288.574 173.54 285.576 169.272 282.148C165.063 278.736 161.591 274.908 158.857 270.664C156.139 266.362 154.323 261.721 153.411 256.741C152.572 251.719 152.949 246.353 154.542 240.641C156.407 233.948 159.3 228.257 163.219 223.566C167.212 218.835 171.93 214.958 177.374 211.936C182.817 208.915 188.842 206.708 195.448 205.316C202.054 203.925 208.948 203.173 216.13 203.061C223.312 202.949 230.608 203.428 238.02 204.5C245.489 205.587 252.772 207.12 259.869 209.098C262.811 209.919 265.788 210.842 268.797 211.867C271.881 212.851 275.084 213.962 278.408 215.199L279.273 215.441ZM257.928 258.55C259.295 253.646 259.346 249.338 258.08 245.628C256.871 241.933 254.793 238.68 251.846 235.869C250.794 237.192 249.753 238.581 248.726 240.035C247.715 241.432 246.745 242.903 245.817 244.448C242.1 242.168 238.913 240.44 236.257 239.264C233.657 238.104 231.435 237.267 229.588 236.752C225.954 235.739 222.121 235.323 218.091 235.506C214.06 235.688 210.252 236.523 206.667 238.01C203.097 239.44 199.901 241.534 197.081 244.292C194.334 247.008 192.389 250.414 191.247 254.511C190.154 258.434 190.129 262.314 191.174 266.149C192.293 269.943 194.081 273.675 196.54 277.345C197.558 275.701 198.44 273.988 199.185 272.207C199.989 270.441 200.721 268.593 201.383 266.664C205.106 269.815 208.507 272.225 211.587 273.892C214.666 275.559 217.447 276.738 219.927 277.429C223.735 278.491 227.626 278.923 231.598 278.724C235.587 278.468 239.325 277.552 242.811 275.974C246.355 274.413 249.459 272.2 252.123 269.336C254.803 266.415 256.738 262.819 257.928 258.55Z"></path>
  </symbol>
  <!-- cart -->
  <symbol id="cart" xmlns="http://www.w3.org/2000/svg" viewBox="0 0 24 24" fill="none">
    <title id="logo-cart">Корзина</title>
    <path  fill-rule="evenodd" d="M11 9.5h10.5l-1.5 11H4l-1.5-11h4.917M16.5 14V8c0-2.485-2.015-4.5-4.5-4.5S7.5 5.515 7.5 8v6"></path>
  </symbol>
  <!-- more -->
  <symbol id="more" xmlns="http://www.w3.org/2000/svg" viewBox="0 0 24 24" fill="none">
    <title id="logo-more">Подробнее</title>
    <path fill-rule="evenodd" d="M12.5 16.5h-9V6L5 4.5h7.5v12zm-9.5 3h18m-6-15h6m-6 6h6m-6 3h6m-6-6h6m-6 9h6"></path>
  </symbol>
    <!-- ****************social icons ****************** -->
  <!-- VK -->
  <symbol id="vk" xmlns="http://www.w3.org/2000/svg" viewBox="0 0 24 24" fill="none">
    <title id="logo-vk">ВКонтакте</title>
    <g fill="none" fill-rule="evenodd">
      <path d="M0 0H24V24H0z"></path>
      <path stroke="#888" d="M12 22.5c7.991 0 10.5-2.501 10.5-10.466C22.5 4.047 19.97 1.5 12 1.5 4.03 1.5 1.5 4.048 1.5 12.034 1.5 20 4.009 22.5 12 22.5z"></path>
      <path fill="#888" d="M18.737 8.623c.11-.344 0-.595-.486-.595H16.64c-.407 0-.595.22-.705.454 0 0-.83 2.005-1.989 3.304-.375.376-.548.501-.751.501-.11 0-.25-.125-.25-.47v-3.21c0-.407-.126-.594-.47-.594H9.937c-.25 0-.407.187-.407.375 0 .392.58.486.642 1.582v2.38c0 .517-.094.61-.298.61-.548 0-1.879-2.02-2.677-4.321-.157-.454-.313-.626-.72-.626H4.848c-.47 0-.548.219-.548.454 0 .422.548 2.552 2.552 5.37 1.331 1.926 3.226 2.96 4.933 2.96 1.033 0 1.158-.235 1.158-.626v-1.457c0-.47.094-.548.423-.548.235 0 .658.126 1.613 1.05 1.096 1.095 1.284 1.597 1.895 1.597h1.612c.47 0 .69-.235.564-.69-.14-.454-.673-1.111-1.362-1.894-.376-.439-.94-.924-1.112-1.159-.235-.313-.172-.438 0-.72-.016 0 1.957-2.787 2.161-3.727"></path>
    </g>
  </symbol>
  <!-- facebook -->
  <symbol id="facebook" xmlns="http://www.w3.org/2000/svg" viewBox="0 0 24 24" fill="none">
    <title id="logo-facebook">Facebook</title>
    <g fill="none" fill-rule="evenodd">
      <path d="M0 0H24V24H0z"></path>
      <path stroke="#888" d="M12 22.5c7.991 0 10.5-2.501 10.5-10.466C22.5 4.047 19.97 1.5 12 1.5 4.03 1.5 1.5 4.048 1.5 12.034 1.5 20 4.009 22.5 12 22.5z"></path>
      <path fill="#888" d="M16.282 15.183l.488-3.18h-3.051V9.94c0-.87.426-1.718 1.792-1.718h1.387V5.515S15.64 5.3 14.436 5.3c-2.513 0-4.155 1.523-4.155 4.28v2.423H7.488v3.18h2.793V22h3.438v-6.817h2.563z"></path>
    </g>
  </symbol>
  <!-- youtube -->
  <symbol id="youtube" xmlns="http://www.w3.org/2000/svg" viewBox="0 0 24 24" fill="none">
    <title id="logo-youtube">Youtube</title>
    <g fill="none" fill-rule="evenodd">
      <path d="M0 0H24V24H0z"></path>
      <path stroke="#888" d="M12 22.5c7.991 0 10.5-2.501 10.5-10.466C22.5 4.047 19.97 1.5 12 1.5 4.03 1.5 1.5 4.048 1.5 12.034 1.5 20 4.009 22.5 12 22.5z"></path>
      <path fill="#888" d="M12.05 7c.484.001 4.396.019 5.42.299.602.164 1.076.648 1.237 1.263.258.98.289 2.898.293 3.344v.188c-.004.446-.035 2.364-.293 3.345-.16.614-.635 1.098-1.237 1.263-.956.26-4.427.293-5.28.297h-.38c-.853-.004-4.324-.036-5.28-.297-.602-.165-1.076-.649-1.237-1.263-.27-1.026-.291-3.075-.293-3.396v-.086c.002-.321.023-2.37.293-3.395.16-.615.635-1.1 1.237-1.263C7.554 7.019 11.466 7 11.95 7zM10 9.5v5l4.5-2.5L10 9.5z"></path>
    </g>
  </symbol>
  <!-- instagram -->
  <symbol id="instagram" xmlns="http://www.w3.org/2000/svg" viewBox="0 0 24 24" fill="none">
    <title id="logo-instagram">Instagram</title>
    <g fill="none" fill-rule="evenodd">
        <path d="M0 0H24V24H0z"/>
        <path stroke="#888" d="M12 22.5c7.991 0 10.5-2.501 10.5-10.466C22.5 4.047 19.97 1.5 12 1.5 4.03 1.5 1.5 4.048 1.5 12.034 1.5 20 4.009 22.5 12 22.5z"/>
        <path fill="#888" d="M12.885 5c1.12.004 1.39.014 2.001.042.745.034 1.254.152 1.7.325.46.18.85.419 1.24.808.389.389.628.78.807 1.24.173.445.291.954.325 1.699.03.645.04.91.042 2.196v1.38c-.002 1.286-.012 1.552-.042 2.196-.034.745-.152 1.254-.325 1.7-.179.46-.418.85-.807 1.24-.39.389-.78.628-1.24.807-.446.173-.955.291-1.7.325-.678.031-.937.04-2.407.042h-.958c-1.47-.001-1.728-.01-2.407-.042-.745-.034-1.254-.152-1.7-.325-.46-.179-.85-.418-1.24-.807-.388-.39-.628-.78-.807-1.24-.173-.446-.291-.955-.325-1.7-.028-.61-.038-.881-.041-2v-1.771c.003-1.12.013-1.39.04-2.001.035-.745.153-1.254.326-1.7.18-.46.419-.85.808-1.24.389-.388.78-.628 1.24-.807.445-.173.954-.291 1.699-.325.61-.028.881-.038 2.001-.041zm-.016 1.262h-1.738c-1.098.003-1.356.012-1.96.04-.682.031-1.053.145-1.3.241-.326.127-.56.279-.804.524-.245.245-.397.478-.524.805-.096.246-.21.617-.241 1.3-.028.603-.037.861-.04 1.959v1.738c.003 1.098.012 1.356.04 1.96.031.682.145 1.053.24 1.3.128.326.28.56.525.805s.478.396.805.523c.246.096.617.21 1.3.241.737.034.959.041 2.828.041h.245c1.646 0 1.88-.009 2.584-.04.682-.032 1.053-.146 1.3-.242.326-.127.56-.278.805-.523s.396-.479.523-.805c.096-.247.21-.618.241-1.3.034-.738.041-.96.041-2.829v-.245c0-1.645-.009-1.879-.04-2.584-.032-.682-.146-1.053-.242-1.3-.127-.326-.278-.56-.523-.804-.245-.245-.479-.397-.805-.524-.247-.096-.618-.21-1.3-.241-.604-.028-.862-.037-1.96-.04zM12 8.405c1.985 0 3.595 1.61 3.595 3.595s-1.61 3.595-3.595 3.595S8.405 13.985 8.405 12 10.015 8.405 12 8.405zm0 1.262c-1.289 0-2.333 1.044-2.333 2.333 0 1.289 1.044 2.334 2.333 2.334 1.289 0 2.334-1.045 2.334-2.334 0-1.289-1.045-2.333-2.334-2.333zm3.737-2.244c.464 0 .84.376.84.84 0 .464-.376.84-.84.84-.464 0-.84-.376-.84-.84 0-.464.376-.84.84-.84z"/>
    </g>
  </symbol>
</svg>