<svg xmlns="http://www.w3.org/2000/svg" width="84" height="25" fill="none" viewBox="0 0 84 25">
    <path fill="#222" d="M81 0H3C1.343 0 0 1.343 0 3v19c0 1.657 1.343 3 3 3h78c1.657 0 3-1.343 3-3V3c0-1.657-1.343-3-3-3z"/>
    <path fill="#fff" d="M31.013 16.447h-2.954l-.722 1.95h-1.298l2.892-7.283h1.227l2.958 7.283h-1.365l-.738-1.95zm-2.582-.99h2.204l-.79-2.086c-.107-.288-.214-.606-.32-.955-.095.308-.199.623-.31.945l-.784 2.096zM33.701 14.302c0-.402-.014-.845-.04-1.327h1.18c.044.225.074.455.092.689.488-.527 1.049-.79 1.68-.79.367 0 .707.091 1.018.274.312.183.565.471.757.864.192.395.288.894.288 1.5 0 .634-.11 1.175-.33 1.625-.218.45-.525.789-.918 1.02-.393.231-.849.347-1.365.347-.373 0-.742-.062-1.105-.186v2.241l-1.258.106v-6.363h.001zm3.307 2.772c.256-.34.384-.837.384-1.491 0-.607-.106-1.046-.318-1.32-.212-.272-.495-.41-.848-.41-.244 0-.47.058-.678.171-.207.114-.404.267-.59.458v2.905c.125.06.271.107.437.143.166.035.332.052.495.052.49.001.861-.169 1.118-.508zM39.48 14.302c0-.402-.013-.845-.04-1.327h1.18c.044.225.074.455.092.689.489-.527 1.05-.79 1.68-.79.367 0 .707.091 1.018.274.313.183.565.471.757.864.192.395.288.894.288 1.5 0 .634-.11 1.175-.33 1.625-.217.45-.525.789-.918 1.02-.393.231-.848.347-1.365.347-.373 0-.741-.062-1.105-.186v2.241l-1.258.106v-6.363h.002zm3.308 2.772c.256-.34.384-.837.384-1.491 0-.607-.106-1.046-.318-1.32-.212-.272-.494-.41-.848-.41-.244 0-.47.058-.677.171-.207.114-.404.267-.59.458v2.905c.125.06.27.107.437.143.166.035.331.052.494.052.49.001.862-.169 1.118-.508zM46.828 18.053c-.544-.296-.96-.72-1.253-1.274-.292-.553-.437-1.206-.437-1.96 0-.818.168-1.512.503-2.083.336-.57.794-1 1.373-1.286.578-.286 1.228-.43 1.947-.43.425 0 .83.047 1.214.139.386.091.745.218 1.077.379l-.321.955c-.669-.315-1.307-.472-1.914-.472-.513 0-.962.108-1.348.324-.385.216-.684.533-.898.952-.213.419-.321.925-.321 1.518 0 .52.082.98.247 1.382.165.402.424.72.778.955.355.235.802.352 1.342.352.245 0 .49-.02.734-.06.244-.04.473-.099.687-.176v-1.473h-1.705v-.965h2.928v3.066c-.421.195-.863.344-1.326.448-.463.103-.923.156-1.383.156-.74-.002-1.38-.15-1.924-.447zM55.994 18.398c-.044-.211-.073-.45-.086-.719-.193.228-.445.422-.756.58-.31.16-.66.24-1.052.24-.316 0-.604-.061-.864-.184-.259-.122-.465-.306-.618-.553-.153-.246-.23-.547-.23-.902 0-.526.193-.945.576-1.26.383-.312 1.023-.47 1.92-.47.336 0 .668.024.997.07v-.105c0-.479-.103-.817-.311-1.012-.207-.196-.503-.295-.89-.295-.269 0-.556.039-.861.116-.306.077-.574.169-.805.276l-.198-.904c.224-.101.52-.193.887-.277.366-.084.753-.126 1.16-.126.476 0 .88.072 1.212.214.333.142.593.387.779.734.187.347.28.814.28 1.4v2.156c0 .224.013.565.041 1.02h-1.18v.001zm-.753-1.005c.26-.124.475-.278.641-.463v-1.005c-.343-.037-.622-.056-.84-.056-.52 0-.879.084-1.077.25-.198.165-.298.389-.298.67 0 .268.072.467.216.596.144.13.34.193.588.193.252 0 .509-.062.77-.185zM58.235 17.096v-6.408l1.252-.1v6.287c0 .231.04.394.12.49.08.096.206.143.38.143.078 0 .188-.019.33-.055l.149.89c-.12.047-.264.085-.435.112-.172.029-.334.043-.487.043-.873 0-1.309-.467-1.309-1.402zM61.366 17.096v-6.408l1.252-.1v6.287c0 .231.04.394.12.49.08.096.206.143.38.143.078 0 .188-.019.33-.055l.149.89c-.12.047-.264.085-.436.112-.17.029-.333.043-.486.043-.872 0-1.309-.467-1.309-1.402zM68.81 15.845h-3.594c.058 1.136.607 1.704 1.645 1.704.258 0 .522-.03.792-.093.27-.062.528-.145.776-.25l.276.85c-.615.295-1.305.443-2.073.443-.583 0-1.076-.109-1.477-.327-.4-.218-.701-.531-.904-.94-.202-.41-.303-.901-.303-1.478 0-.6.107-1.115.321-1.548.215-.433.512-.762.894-.99.381-.228.823-.341 1.321-.341.52 0 .954.119 1.301.36.347.24.606.558.774.956.168.4.252.84.252 1.322v.332zm-1.226-.79c-.023-.432-.134-.756-.331-.972-.198-.217-.46-.324-.79-.324-.32 0-.584.108-.796.326-.213.219-.35.542-.416.97h2.333zM69.825 14.336c0-.298-.014-.752-.04-1.362h1.175c.021.151.04.331.06.54.017.21.03.38.037.51.146-.238.29-.437.43-.6.142-.163.307-.296.495-.397.188-.103.403-.153.643-.153.193 0 .36.02.5.06l-.159 1.075c-.122-.036-.258-.055-.407-.055-.295 0-.553.075-.773.223-.22.149-.457.395-.708.736v3.483h-1.253v-4.06zM73.88 20.617c-.184-.032-.335-.069-.454-.108l.229-.905c.085.024.192.046.321.068.13.022.251.033.367.033.556 0 .973-.354 1.252-1.061l.081-.2-2.026-5.469h1.349l1.019 3.056c.166.523.273.924.32 1.201.096-.392.208-.784.337-1.176l1.034-3.08h1.268l-2.022 5.492c-.19.52-.395.939-.616 1.257-.221.318-.481.554-.782.708-.3.154-.663.231-1.087.231-.212 0-.408-.016-.59-.047z"/>
    <path fill="#CE0E2D" fill-rule="evenodd" d="M16.697 4H9.595c-3.346 0-4.57 1.208-4.57 4.51v7.01c0 3.303 1.224 4.51 4.57 4.51h7.1c3.345 0 4.571-1.207 4.571-4.51V8.51c0-3.302-1.224-4.51-4.57-4.51z" clip-rule="evenodd"/>
    <path fill="#fff" d="M8.242 12.017h.43v2.096h-.43v-.851h-.973v.85h-.431v-2.095h.431v.845h.973v-.845zm2.427 1.2c0 .34-.171.522-.483.522-.313 0-.485-.187-.485-.537v-1.184H9.27v1.198c0 .59.332.928.91.928.585 0 .919-.345.919-.946v-1.182h-.43v1.201zm4.978.241l-.482-1.441h-.351l-.483 1.441-.469-1.44h-.458l.74 2.095h.357l.483-1.376.482 1.376h.36l.738-2.095h-.446l-.47 1.44zm1.69-.247h.783v-.381h-.784V12.4h1.138v-.382h-1.562v2.093h1.603v-.382h-1.178v-.519zm1.692.899h.425v-2.093h-.425v2.093zm-7.078-.435l-.194.437h-.44l.936-2.095h.38l.932 2.095h-.452l-.19-.437h-.972zm.16-.377h.651l-.326-.75-.325.75zM13.146 9.349c-1.49 0-2.703-1.197-2.703-2.67h.383c0 1.264 1.041 2.293 2.321 2.293 1.28 0 2.322-1.029 2.322-2.292h.382c-.002 1.472-1.215 2.669-2.705 2.669zM26.928 8.893c-.263-.15-.464-.362-.602-.634-.139-.273-.209-.59-.209-.95 0-.378.074-.71.222-.993.149-.284.362-.503.64-.657.28-.155.608-.232.986-.232.363 0 .674.075.936.224.262.15.46.36.597.631.138.272.206.586.206.942 0 .386-.075.72-.224 1.005-.15.284-.363.504-.64.657-.277.154-.603.23-.976.23-.361.003-.672-.072-.936-.223zm1.608-.44c.174-.116.303-.276.39-.48.085-.205.129-.438.129-.701 0-.258-.039-.488-.115-.69-.076-.201-.197-.362-.364-.482-.167-.12-.383-.18-.645-.18-.251 0-.465.062-.64.183-.175.122-.308.285-.395.49-.087.204-.13.429-.13.675 0 .26.04.492.124.697.083.206.209.368.379.486.17.12.381.179.632.179.25-.002.461-.06.635-.177zM30.962 5.996h-1.114l.054-.519h2.795l-.057.519h-1.059v3.073h-.62V5.996zM36.037 9.07h-.7L34.27 7.486h-.424V9.07h-.62V5.477h.62V6.96h.325l.744-1.077c.108-.16.218-.277.329-.349.11-.072.249-.107.415-.107.14 0 .263.022.373.069l-.13.484c-.068-.028-.132-.043-.193-.043-.073 0-.135.018-.188.055-.052.036-.107.094-.162.175l-.657.943 1.336 1.958zM36.51 5.477h.968c.454 0 .803.093 1.044.278.24.184.362.453.362.804 0 .238-.054.446-.162.624-.108.178-.258.314-.452.409-.194.095-.416.142-.668.142-.137 0-.294-.017-.47-.05V9.07h-.621V5.477zm1.556 1.604c.133-.12.199-.29.199-.508 0-.22-.067-.38-.203-.479-.134-.097-.332-.146-.593-.146h-.338v1.275c.155.025.275.038.358.038.253 0 .445-.06.578-.18zM40.078 8.893c-.263-.15-.465-.362-.603-.634-.138-.273-.208-.59-.208-.95 0-.378.074-.71.222-.993.148-.284.361-.503.64-.657.279-.155.607-.232.986-.232.362 0 .673.075.935.224.262.15.46.36.598.631.137.272.205.586.205.942 0 .386-.075.72-.224 1.005-.15.284-.362.504-.64.657-.277.154-.603.23-.976.23-.36.003-.673-.072-.935-.223zm1.607-.44c.173-.116.303-.276.389-.48.086-.205.13-.438.13-.701 0-.258-.04-.488-.115-.69-.076-.201-.198-.362-.365-.482-.167-.12-.382-.18-.645-.18-.25 0-.464.062-.64.183-.175.122-.307.285-.394.49-.088.204-.131.429-.131.675 0 .26.041.492.124.697.083.206.21.368.38.486.17.12.38.179.632.179.25-.002.462-.06.635-.177zM46.011 9.07V7.094c0-.248.01-.533.028-.854L44.235 9.07h-.69V5.477h.577v2.052c0 .223-.008.467-.023.731l1.776-2.783h.712v3.591h-.576v.001zm-1.4-3.905c-.13-.07-.23-.16-.299-.268-.068-.109-.111-.226-.13-.353h.447c.048.265.203.398.466.398s.419-.133.469-.398h.45c-.018.126-.062.243-.131.353-.068.109-.169.199-.3.268-.132.069-.295.103-.487.103s-.353-.034-.484-.103zM48.225 5.996h-1.114l.055-.519h2.795l-.057.519h-1.06v3.073h-.62V5.996h.002zM50.487 5.477h2.116l-.06.51h-1.435v.99h1.354v.48h-1.354v1.096h1.513l-.052.516h-2.082V5.477zM56.946 7.294c.128.08.23.182.302.31.073.13.11.28.11.451 0 .2-.05.376-.15.53-.099.153-.245.271-.438.357-.192.085-.424.128-.693.128h-1.17V5.477h1.12c.38 0 .666.073.856.22.19.147.285.349.285.606 0 .213-.061.39-.182.534-.122.143-.281.244-.478.301.164.026.31.077.438.156zm-1.434-.348h.387c.13 0 .243-.026.34-.077.1-.052.175-.12.228-.208.053-.087.079-.182.079-.286 0-.147-.053-.257-.16-.33-.107-.073-.26-.109-.462-.109h-.412v1.01zm1.04 1.51c.126-.105.19-.25.19-.438 0-.201-.07-.353-.21-.457-.14-.104-.34-.156-.603-.156h-.417V8.61h.466c.256 0 .447-.051.574-.155z"/>
</svg>
