<svg width="0" height="0" class="hidden">
  <!-- ? **************** main icons ****************** -->
<!-- birthday -->
  <symbol id="birthday" xmlns="http://www.w3.org/2000/svg" viewBox="0 0 302 195">
    <title id="logo-birthday">Нам 35 лет</title>
    <path d="M135.15 121.248C123.49 133.854 110.236 142.253 95.388 146.445C80.5557 150.58 63.8505 150.058 45.2725 144.879C42.33 144.059 38.9581 142.994 35.1568 141.686C31.3394 140.435 27.41 139.029 23.3685 137.467C19.327 135.905 15.2888 134.22 11.2539 132.411C7.26067 130.676 3.59611 128.877 0.260229 127.014C5.1678 121.232 9.25486 115.158 12.5214 108.794C15.8618 102.388 18.5854 95.4059 20.6925 87.8478C24.9693 91.4651 29.6439 94.8824 34.7163 98.0996C39.7887 101.317 44.9334 104.275 50.1505 106.973C55.4414 109.629 60.6604 111.985 65.8076 114.042C71.0125 116.115 75.8858 117.816 80.4277 119.144C80.5242 118.798 80.6415 118.488 80.7797 118.216C80.9178 117.944 81.0351 117.634 81.1316 117.288C82.1288 113.711 82.2809 110.489 81.5878 107.622C80.9108 104.697 79.767 102.109 78.1564 99.8568C76.6035 97.6207 74.773 95.7113 72.6648 94.1287C70.5566 92.5461 68.5572 91.2426 66.6665 90.2181C64.7758 89.1936 63.175 88.4675 61.8641 88.0399C60.627 87.5706 60.0661 87.3521 60.1815 87.3842L65.0183 68.0268C69.493 69.1499 73.5114 69.6794 77.0735 69.6154C80.6356 69.5514 83.7877 69.0621 86.5298 68.1477C89.3296 67.2494 91.7161 66.0493 93.6893 64.5474C95.7363 63.004 97.4451 61.3351 98.8158 59.541C100.244 57.7629 101.376 55.9332 102.211 54.052C103.104 52.1868 103.776 50.4465 104.226 48.831C104.355 48.3695 104.447 47.9287 104.502 47.5087C104.573 47.0311 104.673 46.5615 104.801 46.0999C98.8198 44.8055 92.7868 43.8076 86.7021 43.1062C80.6752 42.4209 74.6303 42.1348 68.5673 42.2478C62.5621 42.3769 56.5516 42.9709 50.5359 44.0297C44.5202 45.0886 38.5167 46.7727 32.5255 49.082C33.5363 41.2182 33.6173 33.344 32.7686 25.4593C31.9199 17.5745 30.3755 9.62025 28.1354 1.59638C32.6982 1.06518 37.769 0.831024 43.3476 0.893908C48.984 0.972876 54.6217 1.26986 60.2609 1.78487C65.9738 2.25827 71.4701 2.95108 76.7498 3.86332C82.1032 4.73394 86.7416 5.71612 90.6649 6.80985C98.8577 9.09382 106.554 12.2654 113.755 16.3247C120.955 20.3839 127.366 25.1558 132.988 30.6403C138.626 36.0672 143.288 42.0927 146.976 48.7168C150.679 55.2832 153.143 62.2813 154.367 69.7111L142.769 62.4673C141.93 65.0314 140.835 67.3997 139.483 69.5723C138.147 71.6871 136.642 73.6302 134.966 75.4017C133.307 77.1154 131.544 78.6447 129.677 79.9896C127.81 81.3344 125.962 82.4981 124.133 83.4807C119.87 85.8365 115.287 87.6678 110.384 88.9746C113.49 92.3279 116.134 95.894 118.314 99.6728C119.229 101.296 120.084 103.026 120.877 104.864C121.728 106.718 122.374 108.639 122.815 110.628C123.313 112.632 123.577 114.695 123.607 116.818C123.711 118.899 123.494 121.015 122.957 123.165C124.938 122.972 126.936 122.72 128.95 122.411C131.021 122.118 133.088 121.73 135.15 121.248ZM262.765 170.349C259.779 175.485 256.027 179.911 251.509 183.626C247.049 187.357 241.83 190.13 235.852 191.946C229.916 193.835 223.253 194.651 215.863 194.394C208.514 194.211 200.488 192.782 191.782 190.106C183.134 187.447 173.84 183.426 163.9 178.043C153.943 172.718 143.389 165.858 132.236 157.464L158.733 117.283C160.054 120.574 161.898 123.886 164.264 127.219C166.688 130.569 169.399 133.781 172.397 136.855C175.469 139.888 178.75 142.73 182.239 145.381C185.728 148.033 189.256 150.322 192.822 152.249C196.463 154.134 199.998 155.617 203.427 156.698C206.931 157.737 210.159 158.201 213.112 158.092C216.123 157.998 218.759 157.241 221.02 155.82C223.282 154.398 225.02 152.178 226.235 149.159C227.231 146.701 227.375 144.067 226.665 141.258C225.956 138.448 224.58 135.578 222.538 132.645C220.552 129.729 218.029 126.849 214.966 124.006C211.92 121.105 208.529 118.325 204.793 115.667C201.115 113.025 197.199 110.565 193.046 108.288C188.95 106.027 184.832 104.071 180.692 102.419C176.625 100.726 172.671 99.4058 168.831 98.4596C164.991 97.5135 161.479 97.063 158.295 97.1081C161.891 94.6908 166.106 93.0676 170.938 92.2385L185.132 54.0375C183.057 51.2206 181.195 48.3077 179.547 45.2988C177.972 42.2483 176.614 38.9783 175.473 35.489C185.059 39.4671 194.943 43.1553 205.126 46.5536C215.325 49.8943 225.739 52.7975 236.368 55.2633C246.998 57.729 257.78 59.6467 268.715 61.0162C279.707 62.4019 290.725 63.1415 301.767 63.2351C297.166 69.4764 293.242 75.9684 289.995 82.7112C286.821 89.4123 284.126 96.4024 281.91 103.682C268.387 100.222 256.018 96.5254 244.803 92.5907C233.604 88.5983 223.633 84.1084 214.888 79.1212L208.201 96.7504C212.092 97.9595 215.683 99.2405 218.975 100.593C222.324 101.962 225.24 103.211 227.724 104.338C230.637 105.71 233.32 107.017 235.771 108.26C241.427 111.392 246.212 114.747 250.127 118.325C254.115 121.862 257.323 125.523 259.75 129.309C262.25 133.052 264.06 136.821 265.178 140.615C266.355 144.425 267.004 148.119 267.125 151.698C267.263 155.218 266.919 158.573 266.092 161.762C265.322 164.968 264.214 167.83 262.765 170.349Z"></path>
  </symbol>
  <!-- logo -->
  <symbol id="logo" xmlns="http://www.w3.org/2000/svg" viewBox="0 0 965 465">
    <title id="logo-title">Компания "Lomoda"</title>
    <path d="M474.265 188.489C471.989 193.161 470.073 197.653 468.515 201.966C466.958 206.278 465.7 210.411 464.742 214.364C463.784 218.317 463.095 222.121 462.676 225.774C462.316 229.428 462.136 232.902 462.136 236.196C462.136 242.665 462.825 248.595 464.203 253.985C465.64 259.316 467.467 264.197 469.683 268.63C471.899 273.002 474.385 276.955 477.14 280.489C479.955 284.023 482.741 287.168 485.496 289.923C483.1 289.923 480.884 289.803 478.847 289.563C476.871 289.324 474.685 289.204 472.289 289.204C469.713 289.204 467.198 289.384 464.742 289.743C462.286 290.043 459.771 290.492 457.195 291.091C454.679 291.75 452.044 292.558 449.289 293.516C446.534 294.475 443.569 295.613 440.394 296.931C437.639 289.803 435.423 282.675 433.746 275.548C432.069 268.42 430.871 261.293 430.152 254.165C427.157 260.095 424.642 266.294 422.605 272.763C420.569 279.231 419.101 286.179 418.203 293.606C417.484 293.606 415.957 293.636 413.621 293.696C411.345 293.756 408.53 293.906 405.176 294.145C401.881 294.445 398.258 294.894 394.304 295.493C390.351 296.152 386.398 297.05 382.445 298.188C381.607 290.162 380.199 282.615 378.222 275.548C376.246 268.42 373.73 261.682 370.676 255.333C369.957 262.221 368.729 269.139 366.992 276.087C365.255 283.035 363.039 289.983 360.344 296.931C348.005 291.78 335.696 289.204 323.418 289.204C321.561 289.204 319.345 289.324 316.769 289.563C314.194 289.743 311.618 289.923 309.043 290.102C318.446 281.058 325.574 270.936 330.426 259.735C335.337 248.475 337.793 235.957 337.793 222.181C337.793 220.623 337.733 218.976 337.613 217.239C337.493 215.442 337.344 213.585 337.164 211.669C332.672 207.416 327.88 203.253 322.789 199.181C317.758 195.108 312.427 190.945 306.797 186.692C309.312 187.171 312.666 187.83 316.859 188.669C321.112 189.447 326.173 189.837 332.043 189.837C337.134 189.837 342.764 189.328 348.933 188.309C355.103 187.291 361.631 185.345 368.519 182.47C372.472 187.92 376.396 194.209 380.289 201.337C383.643 207.446 387.147 214.783 390.801 223.349C394.514 231.854 397.868 241.407 400.863 252.009L407.152 236.376C409.189 231.285 411.135 226.373 412.992 221.641C414.909 216.91 416.676 212.268 418.293 207.716C419.97 203.104 421.467 198.492 422.785 193.88C424.163 189.208 425.39 184.356 426.469 179.325C430.781 181.601 435.183 183.368 439.676 184.626C444.168 185.884 448.51 186.812 452.703 187.411C456.955 187.95 460.939 188.28 464.652 188.399C468.366 188.459 471.57 188.489 474.265 188.489ZM603.91 186.692C601.814 188.369 599.837 190.136 597.98 191.993C596.123 193.79 594.357 195.707 592.679 197.743C598.31 198.821 603.64 200.558 608.672 202.954C613.703 205.29 618.075 208.255 621.789 211.849C625.502 215.442 628.437 219.635 630.594 224.427C632.81 229.158 633.918 234.429 633.918 240.239C633.918 246.828 632.81 252.787 630.594 258.118C628.437 263.389 625.413 268.121 621.519 272.313C617.686 276.446 613.134 280.04 607.863 283.095C602.592 286.089 596.872 288.575 590.703 290.552C584.534 292.468 578.035 293.906 571.207 294.864C564.379 295.822 557.491 296.302 550.543 296.302C548.087 296.302 545.541 296.242 542.906 296.122C540.271 296.062 537.695 295.942 535.179 295.763C532.724 295.583 530.418 295.313 528.261 294.954C526.165 294.655 524.398 294.265 522.961 293.786C524.638 292.408 526.225 291.031 527.722 289.653C529.28 288.216 530.687 286.778 531.945 285.341C526.255 284.263 520.894 282.645 515.863 280.489C510.892 278.333 506.519 275.578 502.746 272.224C498.972 268.809 495.978 264.826 493.761 260.274C491.605 255.662 490.527 250.391 490.527 244.462C490.527 237.514 491.785 231.255 494.301 225.684C496.876 220.054 500.38 215.053 504.812 210.681C509.245 206.308 514.455 202.565 520.445 199.45C526.435 196.335 532.873 193.76 539.761 191.724C546.649 189.687 553.807 188.19 561.234 187.231C568.721 186.273 576.148 185.794 583.515 185.794C586.57 185.794 589.685 185.884 592.859 186.063C596.094 186.183 599.478 186.393 603.011 186.692L603.91 186.692ZM594.926 233.95C594.926 228.859 593.817 224.696 591.601 221.462C589.445 218.227 586.57 215.652 582.976 213.735C582.317 215.293 581.689 216.91 581.09 218.587C580.491 220.204 579.952 221.881 579.472 223.618C575.28 222.42 571.746 221.612 568.871 221.192C566.056 220.773 563.69 220.563 561.773 220.563C558 220.563 554.196 221.192 550.363 222.45C546.53 223.708 543.086 225.535 540.031 227.931C536.976 230.266 534.461 233.141 532.484 236.556C530.567 239.91 529.609 243.713 529.609 247.966C529.609 252.039 530.627 255.782 532.664 259.196C534.76 262.55 537.485 265.665 540.84 268.54C541.379 266.683 541.768 264.796 542.008 262.88C542.307 260.963 542.517 258.987 542.636 256.95C547.069 258.987 550.992 260.394 554.406 261.173C557.82 261.951 560.815 262.341 563.39 262.341C567.344 262.341 571.207 261.712 574.98 260.454C578.754 259.136 582.108 257.25 585.043 254.794C588.038 252.338 590.433 249.373 592.23 245.899C594.027 242.365 594.926 238.382 594.926 233.95ZM778.926 231.524C779.045 232.543 779.135 233.561 779.195 234.579C779.255 235.597 779.285 236.615 779.285 237.634C779.285 242.964 778.357 248.115 776.5 253.087C774.703 258.058 772.157 262.73 768.863 267.102C765.569 271.475 761.646 275.488 757.094 279.141C752.541 282.735 747.57 285.85 742.179 288.485C736.789 291.061 731.039 293.067 724.929 294.505C718.82 295.942 712.591 296.661 706.242 296.661C701.57 296.661 696.838 296.182 692.047 295.224C687.315 294.265 682.703 292.498 678.211 289.923C673.539 290.462 668.597 291.39 663.386 292.708C658.176 294.026 652.695 295.553 646.945 297.29C651.677 284.592 655.42 271.834 658.176 259.016C660.931 246.139 662.398 233.112 662.578 219.934C658.685 221.671 654.821 223.828 650.988 226.403C651.288 224.307 651.527 222.48 651.707 220.923C651.886 219.365 651.976 218.078 651.976 217.059C651.976 205.02 648.472 194.599 641.465 185.794C643.501 185.195 645.867 184.656 648.562 184.177C651.317 183.697 654.252 183.248 657.367 182.829C660.482 182.41 663.656 182.05 666.89 181.751C670.185 181.451 673.359 181.212 676.414 181.032C679.528 180.793 682.433 180.643 685.129 180.583C687.824 180.463 690.13 180.403 692.047 180.403C704.086 180.403 715.017 181.691 724.84 184.266C734.722 186.842 743.168 190.376 750.176 194.868C757.183 199.3 762.574 204.511 766.347 210.501C770.181 216.431 772.097 222.78 772.097 229.548C772.097 230.266 772.067 230.955 772.008 231.614C771.948 232.273 771.918 232.932 771.918 233.591C774.254 233.052 776.59 232.363 778.926 231.524ZM739.125 237.454C737.747 233.082 735.561 229.428 732.566 226.493C729.571 223.498 726.217 221.072 722.504 219.216C718.79 217.359 714.927 215.981 710.914 215.083C706.961 214.125 703.307 213.496 699.953 213.196C699.594 224.816 699.414 236.406 699.414 247.966C699.414 253.117 699.444 258.298 699.504 263.509C699.623 268.66 699.773 273.841 699.953 279.052C704.625 277.554 708.997 275.578 713.07 273.122C717.143 270.666 720.587 267.701 723.402 264.227C726.277 260.753 728.403 256.8 729.781 252.368C731.159 247.936 731.518 243.024 730.859 237.634C732.057 237.634 733.345 237.634 734.722 237.634C736.16 237.634 737.627 237.574 739.125 237.454ZM928.156 257.13C925.64 258.328 923.155 259.496 920.699 260.634C918.243 261.712 915.758 262.76 913.242 263.778C918.752 273.721 924.832 283.095 931.48 291.899C922.196 291.899 913.332 292.798 904.886 294.595C896.441 296.451 887.876 299.296 879.191 303.13C879.85 301.572 880.239 299.955 880.359 298.278C880.539 296.661 880.629 294.984 880.629 293.247C880.629 290.372 880.359 287.227 879.82 283.813C879.281 280.339 878.472 276.716 877.394 272.942C874.879 273.302 872.363 273.571 869.847 273.751C867.332 273.871 864.876 273.931 862.48 273.931C858.228 273.931 854.035 273.691 849.902 273.212C845.829 272.673 841.906 271.804 838.133 270.606C837.114 275.039 836.186 279.591 835.347 284.263C834.509 288.875 833.67 293.636 832.832 298.548C829.777 296.99 826.423 295.583 822.769 294.325C819.655 293.307 816.031 292.349 811.898 291.45C807.825 290.552 803.513 290.102 798.961 290.102C795.067 290.102 790.935 290.432 786.562 291.091C782.19 291.75 777.368 292.828 772.097 294.325C776.17 290.312 779.974 286.239 783.508 282.106C787.101 277.914 790.366 273.901 793.301 270.067C796.295 266.174 798.931 262.55 801.207 259.196C803.543 255.782 805.489 252.817 807.047 250.302C805.31 248.205 803.692 245.959 802.195 243.563C800.758 241.168 799.38 238.592 798.062 235.837C800.458 237.035 802.824 238.143 805.16 239.161C807.496 240.119 809.802 241.018 812.078 241.856C814.833 237.005 817.738 232.123 820.793 227.212C823.847 222.3 827.112 217.509 830.586 212.837C829.867 211.1 828.939 209.123 827.801 206.907C826.722 204.691 825.524 202.415 824.207 200.079C822.949 197.683 821.601 195.317 820.164 192.981C818.726 190.645 817.319 188.489 815.941 186.513C821.691 188.07 827.441 189.298 833.191 190.196C839.001 191.095 844.781 191.694 850.531 191.993C853.825 189.298 857.269 186.842 860.863 184.626C864.457 182.35 868.23 180.343 872.183 178.606C870.926 180.703 869.698 182.859 868.5 185.075C867.302 187.291 866.134 189.537 864.996 191.813C867.991 191.514 871.015 191.184 874.07 190.825C877.125 190.406 880.299 189.867 883.594 189.208C885.81 197.294 888.235 205.17 890.871 212.837C893.506 220.503 896.351 228.05 899.406 235.477C902.041 233.98 904.647 232.453 907.222 230.895C909.858 229.278 912.463 227.541 915.039 225.684C916.896 231.974 918.902 237.753 921.058 243.024C923.215 248.295 925.58 252.997 928.156 257.13ZM867.961 247.606C865.864 242.934 863.558 238.233 861.043 233.501C858.587 228.709 855.922 223.888 853.047 219.036C849.513 228.5 846.278 238.562 843.344 249.224C844.422 249.343 845.47 249.403 846.488 249.403C847.566 249.403 848.644 249.403 849.722 249.403C852.777 249.403 855.802 249.283 858.797 249.044C861.851 248.744 864.906 248.265 867.961 247.606Z"></path>
    <path d="M137.053 284.639C127.855 280.831 118.988 277.395 110.453 274.332C101.934 271.211 93.3762 268.452 84.7795 266.055C74.8558 263.289 64.7619 260.91 54.4976 258.919C44.2911 256.944 33.5888 255.298 22.391 253.979C25.396 253.014 28.3931 252.077 31.382 251.169C34.3871 250.204 37.4257 249.341 40.4979 248.581C43.405 242.614 45.9707 236.645 48.1949 230.674C50.4928 224.661 52.4943 218.597 54.1992 212.481C56.7566 203.307 58.6968 194.117 60.0199 184.91C61.359 175.646 62.2655 166.261 62.7392 156.755L71.0474 159.071C77.3939 160.84 83.837 162.263 90.3765 163.34C96.9738 164.433 104.108 165.272 111.78 165.856C108.097 179.068 103.724 191.964 98.6631 204.544C93.6178 217.065 87.6253 229.416 80.6855 241.597C90.9973 240.74 101.44 240.418 112.014 240.63C122.645 240.858 133.638 241.684 144.993 243.109C144.061 245.336 143.179 247.608 142.346 249.926C141.572 252.259 140.846 254.637 140.171 257.06C138.884 261.676 137.939 266.294 137.335 270.913C136.805 275.491 136.711 280.066 137.053 284.639ZM279.273 215.441C276.803 216.493 274.425 217.664 272.138 218.954C269.867 220.187 267.65 221.558 265.488 223.07C270.622 225.62 275.29 228.725 279.493 232.384C283.712 235.985 287.128 240.015 289.74 244.474C292.352 248.933 294.053 253.76 294.844 258.954C295.708 264.108 295.36 269.482 293.799 275.079C292.03 281.425 289.362 286.869 285.796 291.408C282.304 295.907 278.119 299.652 273.243 302.646C268.441 305.597 263.091 307.836 257.193 309.364C251.312 310.833 245.135 311.691 238.661 311.939C232.204 312.128 225.558 311.768 218.723 310.857C211.888 309.947 205.125 308.559 198.432 306.693C196.066 306.033 193.63 305.292 191.124 304.469C188.601 303.704 186.153 302.897 183.778 302.048C181.46 301.215 179.312 300.337 177.331 299.411C175.392 298.56 173.795 297.71 172.539 296.863C174.524 295.986 176.423 295.085 178.235 294.16C180.121 293.194 181.863 292.187 183.461 291.14C178.269 288.574 173.54 285.576 169.272 282.148C165.063 278.736 161.591 274.908 158.857 270.664C156.139 266.362 154.323 261.721 153.411 256.741C152.572 251.719 152.949 246.353 154.542 240.641C156.407 233.948 159.3 228.257 163.219 223.566C167.212 218.835 171.93 214.958 177.374 211.936C182.817 208.915 188.842 206.708 195.448 205.316C202.054 203.925 208.948 203.173 216.13 203.061C223.312 202.949 230.608 203.428 238.02 204.5C245.489 205.587 252.772 207.12 259.869 209.098C262.811 209.919 265.788 210.842 268.797 211.867C271.881 212.851 275.084 213.962 278.408 215.199L279.273 215.441ZM257.928 258.55C259.295 253.646 259.346 249.338 258.08 245.628C256.871 241.933 254.793 238.68 251.846 235.869C250.794 237.192 249.753 238.581 248.726 240.035C247.715 241.432 246.745 242.903 245.817 244.448C242.1 242.168 238.913 240.44 236.257 239.264C233.657 238.104 231.435 237.267 229.588 236.752C225.954 235.739 222.121 235.323 218.091 235.506C214.06 235.688 210.252 236.523 206.667 238.01C203.097 239.44 199.901 241.534 197.081 244.292C194.334 247.008 192.389 250.414 191.247 254.511C190.154 258.434 190.129 262.314 191.174 266.149C192.293 269.943 194.081 273.675 196.54 277.345C197.558 275.701 198.44 273.988 199.185 272.207C199.989 270.441 200.721 268.593 201.383 266.664C205.106 269.815 208.507 272.225 211.587 273.892C214.666 275.559 217.447 276.738 219.927 277.429C223.735 278.491 227.626 278.923 231.598 278.724C235.587 278.468 239.325 277.552 242.811 275.974C246.355 274.413 249.459 272.2 252.123 269.336C254.803 266.415 256.738 262.819 257.928 258.55Z"></path>
  </symbol>
  <!-- cart -->
  <symbol id="cart" xmlns="http://www.w3.org/2000/svg" viewBox="0 0 24 24" fill="none">
    <title id="logo-cart">Корзина</title>
    <path  fill-rule="evenodd" d="M11 9.5h10.5l-1.5 11H4l-1.5-11h4.917M16.5 14V8c0-2.485-2.015-4.5-4.5-4.5S7.5 5.515 7.5 8v6"></path>
  </symbol>
  <!-- more -->
  <symbol id="more" xmlns="http://www.w3.org/2000/svg" viewBox="0 0 24 24" fill="none">
    <title id="logo-more">Подробнее</title>
    <path fill-rule="evenodd" d="M12.5 16.5h-9V6L5 4.5h7.5v12zm-9.5 3h18m-6-15h6m-6 6h6m-6 3h6m-6-6h6m-6 9h6"></path>
  </symbol>
    <!-- ? ****************social icons ****************** -->
  <!-- VK -->
  <symbol id="vk" xmlns="http://www.w3.org/2000/svg" viewBox="0 0 24 24" fill="none">
    <title id="logo-vk">ВКонтакте</title>
    <g fill="none" fill-rule="evenodd">
      <path d="M0 0H24V24H0z"></path>
      <path stroke="#888" d="M12 22.5c7.991 0 10.5-2.501 10.5-10.466C22.5 4.047 19.97 1.5 12 1.5 4.03 1.5 1.5 4.048 1.5 12.034 1.5 20 4.009 22.5 12 22.5z"></path>
      <path fill="#888" d="M18.737 8.623c.11-.344 0-.595-.486-.595H16.64c-.407 0-.595.22-.705.454 0 0-.83 2.005-1.989 3.304-.375.376-.548.501-.751.501-.11 0-.25-.125-.25-.47v-3.21c0-.407-.126-.594-.47-.594H9.937c-.25 0-.407.187-.407.375 0 .392.58.486.642 1.582v2.38c0 .517-.094.61-.298.61-.548 0-1.879-2.02-2.677-4.321-.157-.454-.313-.626-.72-.626H4.848c-.47 0-.548.219-.548.454 0 .422.548 2.552 2.552 5.37 1.331 1.926 3.226 2.96 4.933 2.96 1.033 0 1.158-.235 1.158-.626v-1.457c0-.47.094-.548.423-.548.235 0 .658.126 1.613 1.05 1.096 1.095 1.284 1.597 1.895 1.597h1.612c.47 0 .69-.235.564-.69-.14-.454-.673-1.111-1.362-1.894-.376-.439-.94-.924-1.112-1.159-.235-.313-.172-.438 0-.72-.016 0 1.957-2.787 2.161-3.727"></path>
    </g>
  </symbol>
  <!-- facebook -->
  <symbol id="facebook" xmlns="http://www.w3.org/2000/svg" viewBox="0 0 24 24" fill="none">
    <title id="logo-facebook">Facebook</title>
    <g fill="none" fill-rule="evenodd">
      <path d="M0 0H24V24H0z"></path>
      <path stroke="#888" d="M12 22.5c7.991 0 10.5-2.501 10.5-10.466C22.5 4.047 19.97 1.5 12 1.5 4.03 1.5 1.5 4.048 1.5 12.034 1.5 20 4.009 22.5 12 22.5z"></path>
      <path fill="#888" d="M16.282 15.183l.488-3.18h-3.051V9.94c0-.87.426-1.718 1.792-1.718h1.387V5.515S15.64 5.3 14.436 5.3c-2.513 0-4.155 1.523-4.155 4.28v2.423H7.488v3.18h2.793V22h3.438v-6.817h2.563z"></path>
    </g>
  </symbol>
  <!-- youtube -->
  <symbol id="youtube" xmlns="http://www.w3.org/2000/svg" viewBox="0 0 24 24" fill="none">
    <title id="logo-youtube">Youtube</title>
    <g fill="none" fill-rule="evenodd">
      <path d="M0 0H24V24H0z"></path>
      <path stroke="#888" d="M12 22.5c7.991 0 10.5-2.501 10.5-10.466C22.5 4.047 19.97 1.5 12 1.5 4.03 1.5 1.5 4.048 1.5 12.034 1.5 20 4.009 22.5 12 22.5z"></path>
      <path fill="#888" d="M12.05 7c.484.001 4.396.019 5.42.299.602.164 1.076.648 1.237 1.263.258.98.289 2.898.293 3.344v.188c-.004.446-.035 2.364-.293 3.345-.16.614-.635 1.098-1.237 1.263-.956.26-4.427.293-5.28.297h-.38c-.853-.004-4.324-.036-5.28-.297-.602-.165-1.076-.649-1.237-1.263-.27-1.026-.291-3.075-.293-3.396v-.086c.002-.321.023-2.37.293-3.395.16-.615.635-1.1 1.237-1.263C7.554 7.019 11.466 7 11.95 7zM10 9.5v5l4.5-2.5L10 9.5z"></path>
    </g>
  </symbol>
  <!-- instagram -->
  <symbol id="instagram" xmlns="http://www.w3.org/2000/svg" viewBox="0 0 24 24" fill="none">
    <title id="logo-instagram">Instagram</title>
    <g fill="none" fill-rule="evenodd">
        <path d="M0 0H24V24H0z"/>
        <path stroke="#888" d="M12 22.5c7.991 0 10.5-2.501 10.5-10.466C22.5 4.047 19.97 1.5 12 1.5 4.03 1.5 1.5 4.048 1.5 12.034 1.5 20 4.009 22.5 12 22.5z"/>
        <path fill="#888" d="M12.885 5c1.12.004 1.39.014 2.001.042.745.034 1.254.152 1.7.325.46.18.85.419 1.24.808.389.389.628.78.807 1.24.173.445.291.954.325 1.699.03.645.04.91.042 2.196v1.38c-.002 1.286-.012 1.552-.042 2.196-.034.745-.152 1.254-.325 1.7-.179.46-.418.85-.807 1.24-.39.389-.78.628-1.24.807-.446.173-.955.291-1.7.325-.678.031-.937.04-2.407.042h-.958c-1.47-.001-1.728-.01-2.407-.042-.745-.034-1.254-.152-1.7-.325-.46-.179-.85-.418-1.24-.807-.388-.39-.628-.78-.807-1.24-.173-.446-.291-.955-.325-1.7-.028-.61-.038-.881-.041-2v-1.771c.003-1.12.013-1.39.04-2.001.035-.745.153-1.254.326-1.7.18-.46.419-.85.808-1.24.389-.388.78-.628 1.24-.807.445-.173.954-.291 1.699-.325.61-.028.881-.038 2.001-.041zm-.016 1.262h-1.738c-1.098.003-1.356.012-1.96.04-.682.031-1.053.145-1.3.241-.326.127-.56.279-.804.524-.245.245-.397.478-.524.805-.096.246-.21.617-.241 1.3-.028.603-.037.861-.04 1.959v1.738c.003 1.098.012 1.356.04 1.96.031.682.145 1.053.24 1.3.128.326.28.56.525.805s.478.396.805.523c.246.096.617.21 1.3.241.737.034.959.041 2.828.041h.245c1.646 0 1.88-.009 2.584-.04.682-.032 1.053-.146 1.3-.242.326-.127.56-.278.805-.523s.396-.479.523-.805c.096-.247.21-.618.241-1.3.034-.738.041-.96.041-2.829v-.245c0-1.645-.009-1.879-.04-2.584-.032-.682-.146-1.053-.242-1.3-.127-.326-.278-.56-.523-.804-.245-.245-.479-.397-.805-.524-.247-.096-.618-.21-1.3-.241-.604-.028-.862-.037-1.96-.04zM12 8.405c1.985 0 3.595 1.61 3.595 3.595s-1.61 3.595-3.595 3.595S8.405 13.985 8.405 12 10.015 8.405 12 8.405zm0 1.262c-1.289 0-2.333 1.044-2.333 2.333 0 1.289 1.044 2.334 2.333 2.334 1.289 0 2.334-1.045 2.334-2.334 0-1.289-1.045-2.333-2.334-2.333zm3.737-2.244c.464 0 .84.376.84.84 0 .464-.376.84-.84.84-.464 0-.84-.376-.84-.84 0-.464.376-.84.84-.84z"/>
    </g>
  </symbol>
        <!-- ? ***************** mobile store ********************** -->
    <!-- *appstore -->
  <symbol  id="appstore" version="1.1" xmlns="http://www.w3.org/2000/svg" viewBox="0 0 85 25">
    <title>appstore</title>
    <desc>Created with sketchtool.</desc>
    <defs></defs>
    <g id="controls" stroke="none" stroke-width="1" fill="none" fill-rule="evenodd">
      <g id="иконки" transform="translate(-1169.000000, -1724.000000)">
        <g id="app-store-badge" transform="translate(1169.000000, 1724.000000)">
          <g id="Group">
            <rect id="Rectangle-63" fill="#222222" x="0" y="0" width="85" height="25" rx="3"></rect>
            <path d="M17.9224806,11.87 C17.9224806,9.855 19.6356589,8.88 19.7015504,8.815 C18.7131783,7.45 17.2635659,7.255 16.7364341,7.19 C15.4844961,7.06 14.2325581,7.905 13.6395349,7.905 C12.9806202,7.905 11.9922481,7.19 10.9379845,7.19 C9.55426357,7.19 8.30232558,7.97 7.57751938,9.205 C6.12790698,11.675 7.18217054,15.315 8.56589147,17.33 C9.29069767,18.305 10.0813953,19.41 11.1356589,19.345 C12.1899225,19.28 12.5852713,18.695 13.8372093,18.695 C15.0891473,18.695 15.4186047,19.345 16.5387597,19.345 C17.6589147,19.345 18.3837209,18.37 19.0426357,17.395 C19.8333333,16.29 20.1627907,15.185 20.1627907,15.12 C20.0968992,15.055 17.9224806,14.275 17.9224806,11.87 L17.9224806,11.87 Z" id="Shape" fill="#FFFFFF"></path>
            <path d="M15.879845,5.89 C16.4069767,5.175 16.8023256,4.265 16.7364341,3.29 C15.9457364,3.355 14.8914729,3.81 14.3643411,4.525 C13.8372093,5.11 13.375969,6.085 13.5077519,6.995 C14.3643411,7.06 15.2868217,6.54 15.879845,5.89 L15.879845,5.89 Z" id="Shape" fill="#FFFFFF"></path>
            <path d="M32.9457364,19.215 L31.496124,19.215 L30.7054264,16.745 L27.9379845,16.745 L27.2131783,19.215 L25.8294574,19.215 L28.5968992,10.83 L30.3100775,10.83 L32.9457364,19.215 L32.9457364,19.215 Z M30.4418605,15.705 L29.7170543,13.495 C29.6511628,13.3 29.5193798,12.715 29.255814,11.935 L29.255814,11.935 C29.1899225,12.26 29.0581395,12.845 28.8604651,13.495 L28.1356589,15.705 L30.4418605,15.705 L30.4418605,15.705 Z" id="Shape" fill="#FFFFFF"></path>
            <path d="M39.996124,16.16 C39.996124,17.2 39.7325581,17.98 39.1395349,18.63 C38.6124031,19.15 38.0193798,19.41 37.2286822,19.41 C36.4379845,19.41 35.8449612,19.15 35.5155039,18.565 L35.5155039,18.565 L35.5155039,21.75 L34.1317829,21.75 L34.1317829,15.25 C34.1317829,14.6 34.1317829,13.95 34.0658915,13.235 L35.251938,13.235 L35.3178295,14.21 L35.3178295,14.21 C35.7790698,13.495 36.4379845,13.105 37.3604651,13.105 C38.0852713,13.105 38.6782946,13.365 39.1395349,13.95 C39.7325581,14.47 39.996124,15.185 39.996124,16.16 L39.996124,16.16 Z M38.6124031,16.16 C38.6124031,15.575 38.4806202,15.055 38.2170543,14.73 C37.9534884,14.34 37.5581395,14.145 37.0310078,14.145 C36.7015504,14.145 36.372093,14.275 36.1085271,14.47 C35.8449612,14.665 35.6472868,14.99 35.5813953,15.315 C35.5155039,15.51 35.5155039,15.64 35.5155039,15.705 L35.5155039,16.745 C35.5155039,17.2 35.6472868,17.525 35.9108527,17.85 C36.1744186,18.175 36.5697674,18.305 36.9651163,18.305 C37.4922481,18.305 37.8875969,18.11 38.1511628,17.72 C38.4806202,17.33 38.6124031,16.81 38.6124031,16.16 L38.6124031,16.16 Z" id="Shape" fill="#FFFFFF"></path>
            <path d="M47.0465116,16.16 C47.0465116,17.2 46.7829457,17.98 46.1899225,18.63 C45.6627907,19.15 45.0697674,19.41 44.2790698,19.41 C43.4883721,19.41 42.8953488,19.15 42.5658915,18.565 L42.5658915,18.565 L42.5658915,21.75 L41.1821705,21.75 L41.1821705,15.25 C41.1821705,14.6 41.1821705,13.95 41.1162791,13.235 L42.3023256,13.235 L42.3682171,14.21 L42.3682171,14.21 C42.8294574,13.495 43.4883721,13.105 44.4108527,13.105 C45.1356589,13.105 45.7286822,13.365 46.1899225,13.95 C46.7829457,14.47 47.0465116,15.185 47.0465116,16.16 L47.0465116,16.16 Z M45.6627907,16.16 C45.6627907,15.575 45.5310078,15.055 45.2674419,14.73 C45.003876,14.34 44.6085271,14.145 44.0813953,14.145 C43.751938,14.145 43.4224806,14.275 43.1589147,14.47 C42.8953488,14.665 42.6976744,14.99 42.6317829,15.315 C42.5658915,15.51 42.5658915,15.64 42.5658915,15.705 L42.5658915,16.745 C42.5658915,17.2 42.6976744,17.525 42.9612403,17.85 C43.2248062,18.175 43.620155,18.305 44.0155039,18.305 C44.5426357,18.305 44.9379845,18.11 45.2015504,17.72 C45.5310078,17.33 45.6627907,16.81 45.6627907,16.16 L45.6627907,16.16 Z" id="Shape" fill="#FFFFFF"></path>
            <path d="M54.9534884,16.875 C54.9534884,17.59 54.6899225,18.175 54.2286822,18.63 C53.7015504,19.15 52.9108527,19.345 51.9224806,19.345 C51,19.345 50.2751938,19.15 49.748062,18.825 L50.0775194,17.72 C50.6705426,18.045 51.3294574,18.24 52.0542636,18.24 C52.5813953,18.24 52.9767442,18.11 53.2403101,17.915 C53.503876,17.655 53.6356589,17.395 53.6356589,17.005 C53.6356589,16.68 53.503876,16.355 53.3062016,16.16 C53.0426357,15.9 52.6472868,15.705 52.120155,15.51 C50.6046512,14.99 49.879845,14.145 49.879845,13.105 C49.879845,12.39 50.1434109,11.87 50.6705426,11.415 C51.1976744,10.96 51.8565891,10.765 52.7790698,10.765 C53.5697674,10.765 54.1627907,10.895 54.6899225,11.155 L54.3604651,12.26 C53.8992248,12 53.372093,11.87 52.7131783,11.87 C52.251938,11.87 51.8565891,12 51.5930233,12.195 C51.3953488,12.39 51.2635659,12.65 51.2635659,12.975 C51.2635659,13.3 51.3953488,13.56 51.6589147,13.82 C51.8565891,14.015 52.3178295,14.21 52.9108527,14.47 C53.6356589,14.73 54.1627907,15.12 54.5581395,15.51 C54.755814,15.835 54.9534884,16.29 54.9534884,16.875 L54.9534884,16.875 Z" id="Shape" fill="#FFFFFF"></path>
            <path d="M59.4341085,14.21 L57.9186047,14.21 L57.9186047,17.135 C57.9186047,17.85 58.1821705,18.24 58.7093023,18.24 C58.9728682,18.24 59.1705426,18.24 59.3023256,18.175 L59.3682171,19.215 C59.1046512,19.345 58.7751938,19.345 58.3139535,19.345 C57.7868217,19.345 57.3255814,19.215 57.0620155,18.89 C56.7325581,18.565 56.6007752,18.045 56.6007752,17.265 L56.6007752,14.21 L55.6782946,14.21 L55.6782946,13.17 L56.6007752,13.17 L56.6007752,12.065 L57.9186047,11.675 L57.9186047,13.17 L59.4341085,13.17 L59.4341085,14.21 L59.4341085,14.21 Z" id="Shape" fill="#FFFFFF"></path>
            <path d="M66.2209302,16.16 C66.2209302,17.07 65.9573643,17.85 65.4302326,18.435 C64.8372093,19.02 64.1124031,19.345 63.1899225,19.345 C62.2674419,19.345 61.5426357,19.02 61.0155039,18.435 C60.4883721,17.85 60.2248062,17.135 60.2248062,16.225 C60.2248062,15.315 60.4883721,14.535 61.0813953,13.95 C61.6085271,13.365 62.3992248,13.04 63.3217054,13.04 C64.244186,13.04 64.9689922,13.365 65.496124,13.95 C65.9573643,14.535 66.2209302,15.25 66.2209302,16.16 L66.2209302,16.16 Z M64.7713178,16.225 C64.7713178,15.64 64.6395349,15.185 64.375969,14.795 C64.1124031,14.34 63.6511628,14.08 63.124031,14.08 C62.5968992,14.08 62.1356589,14.34 61.872093,14.795 C61.6085271,15.185 61.4767442,15.705 61.4767442,16.225 C61.4767442,16.81 61.6085271,17.265 61.872093,17.655 C62.1356589,18.11 62.5968992,18.37 63.124031,18.37 C63.6511628,18.37 64.0465116,18.11 64.375969,17.655 C64.6395349,17.265 64.7713178,16.745 64.7713178,16.225 L64.7713178,16.225 Z" id="Shape" fill="#FFFFFF"></path>
            <path d="M70.6356589,14.34 C70.503876,14.34 70.372093,14.275 70.1744186,14.275 C69.7131783,14.275 69.3178295,14.47 69.0542636,14.795 C68.8565891,15.12 68.7248062,15.51 68.7248062,15.965 L68.7248062,19.15 L67.3410853,19.15 L67.3410853,14.99 C67.3410853,14.275 67.3410853,13.69 67.2751938,13.105 L68.4612403,13.105 L68.5271318,14.275 L68.5930233,14.275 C68.7248062,13.885 68.9883721,13.56 69.251938,13.3 C69.5813953,13.105 69.9108527,12.975 70.2403101,12.975 L70.5697674,12.975 L70.5697674,14.34 L70.6356589,14.34 Z" id="Shape" fill="#FFFFFF"></path>
            <path d="M76.6976744,15.9 C76.6976744,16.16 76.6976744,16.355 76.6317829,16.485 L72.5465116,16.485 C72.5465116,17.07 72.744186,17.525 73.1395349,17.85 C73.4689922,18.11 73.9302326,18.305 74.4573643,18.305 C75.0503876,18.305 75.6434109,18.24 76.1046512,18.045 L76.3023256,18.955 C75.7093023,19.215 75.0503876,19.345 74.2596899,19.345 C73.3372093,19.345 72.5465116,19.085 72.0193798,18.5 C71.4922481,17.98 71.2286822,17.2 71.2286822,16.29 C71.2286822,15.38 71.4922481,14.6 71.9534884,14.015 C72.4806202,13.365 73.2054264,13.04 74.127907,13.04 C74.9844961,13.04 75.7093023,13.365 76.1046512,14.015 C76.5658915,14.535 76.6976744,15.185 76.6976744,15.9 L76.6976744,15.9 Z M75.4457364,15.575 C75.4457364,15.185 75.379845,14.86 75.1821705,14.535 C74.9186047,14.145 74.5891473,13.95 74.127907,13.95 C73.6666667,13.95 73.3372093,14.145 73.0736434,14.47 C72.875969,14.73 72.744186,15.12 72.6782946,15.51 L75.4457364,15.51 L75.4457364,15.575 Z" id="Shape" fill="#FFFFFF"></path>
            <path d="M28.3254264,8.1936 C28.0724018,8.1936 27.8391484,8.16435029 27.6256589,8.10585 C27.4121695,8.04734971 27.2273457,7.9576506 27.0711822,7.83675 C26.9150186,7.7158494 26.79345,7.56375092 26.7064729,7.38045 C26.6194957,7.19714908 26.5760078,6.97875127 26.5760078,6.72525 L27.1156589,6.72525 C27.1196124,6.91245094 27.1561818,7.07137435 27.2253682,7.202025 C27.2945546,7.33267565 27.3854839,7.4379746 27.4981589,7.517925 C27.6108339,7.5978754 27.7422861,7.65539982 27.8925194,7.6905 C28.0427527,7.72560018 28.2028674,7.74315 28.3728682,7.74315 C28.519148,7.74315 28.655542,7.7226752 28.7820543,7.681725 C28.9085665,7.6407748 29.0182747,7.58227538 29.1111822,7.506225 C29.2040896,7.43017462 29.2772284,7.33852554 29.3306008,7.231275 C29.3839731,7.12402446 29.4106589,7.00410066 29.4106589,6.8715 C29.4106589,6.71939924 29.381008,6.59557548 29.3217054,6.500025 C29.2624028,6.40447452 29.1843222,6.33037526 29.0874612,6.277725 C28.9906003,6.22507474 28.877927,6.1890001 28.749438,6.1695 C28.620949,6.1499999 28.4855433,6.14025 28.3432171,6.14025 C28.2839144,6.14025 28.2167058,6.14122499 28.1415891,6.143175 C28.0664725,6.14512501 28.0071708,6.14804998 27.9636822,6.15195 L27.9636822,5.69565 C28.0111243,5.70345004 28.0743794,5.70735 28.1534496,5.70735 L28.3432171,5.70735 C28.4776363,5.70735 28.6011816,5.69467513 28.7138566,5.669325 C28.8265316,5.64397487 28.9233911,5.60205029 29.004438,5.54355 C29.0854849,5.48504971 29.1487401,5.40802548 29.1942054,5.312475 C29.2396708,5.21692452 29.2624031,5.0989507 29.2624031,4.95855 C29.2624031,4.82984936 29.237694,4.72260043 29.1882752,4.6368 C29.1388563,4.55099957 29.0716477,4.48177526 28.9866473,4.429125 C28.9016469,4.37647474 28.8047874,4.33845012 28.6960659,4.31505 C28.5873444,4.29164988 28.4736828,4.27995 28.3550775,4.27995 C28.0427504,4.27995 27.7976365,4.34722433 27.6197287,4.481775 C27.4418208,4.61632567 27.3370544,4.83569848 27.3054264,5.1399 L26.7657752,5.1399 C26.7736822,4.91759889 26.8201352,4.72357583 26.9051357,4.557825 C26.9901361,4.39207417 27.1037977,4.25557554 27.246124,4.148325 C27.3884503,4.04107446 27.5554835,3.96015027 27.7472287,3.90555 C27.9389738,3.85094973 28.1475183,3.82365 28.3728682,3.82365 C28.5744971,3.82365 28.7632743,3.84607478 28.9392054,3.890925 C29.1151365,3.93577522 29.2683327,4.00499953 29.3987984,4.0986 C29.5292642,4.19220047 29.6320539,4.31017429 29.7071705,4.452525 C29.7822872,4.59487571 29.819845,4.76354902 29.819845,4.95855 C29.819845,5.07165057 29.8000777,5.17694951 29.7605426,5.27445 C29.7210076,5.37195049 29.6686244,5.45969961 29.6033915,5.5377 C29.5381586,5.61570039 29.4630431,5.68297472 29.3780426,5.739525 C29.2930422,5.79607528 29.2070547,5.83799986 29.1200775,5.8653 L29.1200775,5.88285 C29.2584503,5.91015014 29.3810072,5.95597468 29.4877519,6.020325 C29.5944967,6.08467532 29.6834493,6.16169955 29.7546124,6.2514 C29.8257755,6.34110045 29.8791471,6.44054945 29.9147287,6.54975 C29.9503103,6.65895055 29.9681008,6.77009943 29.9681008,6.8832 C29.9681008,7.01190064 29.9384499,7.15229924 29.8791473,7.3044 C29.8198447,7.45650076 29.7239735,7.59884934 29.591531,7.73145 C29.4590885,7.86405066 29.2890902,7.97422456 29.081531,8.061975 C28.8739718,8.14972544 28.6219395,8.1936 28.3254264,8.1936 L28.3254264,8.1936 Z M31.4625194,8.16435 C31.3241466,8.16435 31.1936828,8.14972515 31.071124,8.120475 C30.9485653,8.09122485 30.8408338,8.04247534 30.7479264,7.974225 C30.6550189,7.90597466 30.5818801,7.81822554 30.5285078,7.710975 C30.4751354,7.60372446 30.4484496,7.47405076 30.4484496,7.32195 C30.4484496,7.15034914 30.4781005,7.00995055 30.5374031,6.90075 C30.5967057,6.79154945 30.6747863,6.70282534 30.7716473,6.634575 C30.8685082,6.56632466 30.9792048,6.51465018 31.1037403,6.47955 C31.2282758,6.44444982 31.3557745,6.41520012 31.4862403,6.3918 C31.6246131,6.36449986 31.7560653,6.34402507 31.8806008,6.330375 C32.0051363,6.31672493 32.1148445,6.29722513 32.2097287,6.271875 C32.3046129,6.24652487 32.3797284,6.20947524 32.4350775,6.160725 C32.4904266,6.11197476 32.5181008,6.04080047 32.5181008,5.9472 C32.5181008,5.83799945 32.4973452,5.75025033 32.4558333,5.68395 C32.4143215,5.61764967 32.3609499,5.56695018 32.2957171,5.53185 C32.2304842,5.49674982 32.1573454,5.47335006 32.0762984,5.46165 C31.9952515,5.44994994 31.9151942,5.4441 31.836124,5.4441 C31.6226346,5.4441 31.4447294,5.4840746 31.3024031,5.564025 C31.1600768,5.6439754 31.0829846,5.79509889 31.071124,6.0174 L30.5670543,6.0174 C30.5749613,5.83019906 30.6144958,5.67225064 30.6856589,5.54355 C30.7568221,5.41484936 30.8517048,5.3105254 30.9703101,5.230575 C31.0889153,5.1506246 31.2243209,5.09310018 31.376531,5.058 C31.5287411,5.02289982 31.6918208,5.00535 31.8657752,5.00535 C32.004148,5.00535 32.1415303,5.0150999 32.2779264,5.0346 C32.4143224,5.0541001 32.5378677,5.0940747 32.6485659,5.154525 C32.7592641,5.2149753 32.8482167,5.29979945 32.9154264,5.409 C32.982636,5.51820055 33.0162403,5.66054912 33.0162403,5.83605 L33.0162403,7.39215 C33.0162403,7.50915058 33.0231588,7.59494973 33.0369961,7.64955 C33.0508334,7.70415027 33.0972864,7.73145 33.1763566,7.73145 C33.2119382,7.73145 33.263333,7.7217001 33.3305426,7.7022 L33.3305426,8.0883 C33.2435655,8.13900025 33.1229853,8.16435 32.9687984,8.16435 C32.8383327,8.16435 32.7345546,8.12827536 32.6574612,8.056125 C32.5803678,7.98397464 32.5418217,7.86600082 32.5418217,7.7022 C32.4034489,7.86600082 32.2423459,7.98397464 32.0585078,8.056125 C31.8746696,8.12827536 31.6760088,8.16435 31.4625194,8.16435 L31.4625194,8.16435 Z M31.5751938,7.73145 C31.7412411,7.73145 31.8835653,7.70902522 32.0021705,7.664175 C32.1207758,7.61932478 32.2176353,7.56277534 32.2927519,7.494525 C32.3678686,7.42627466 32.4232169,7.3521754 32.4587984,7.272225 C32.49438,7.1922746 32.5121705,7.11720035 32.5121705,7.047 L32.5121705,6.53805 C32.4489144,6.58875025 32.365892,6.6238499 32.2631008,6.64335 C32.1603096,6.6628501 32.0525781,6.68039992 31.9399031,6.696 C31.8272281,6.71160008 31.7135665,6.72719992 31.5989147,6.7428 C31.484263,6.75840008 31.3814733,6.7856998 31.2905426,6.8247 C31.1996119,6.86370019 31.1254848,6.91927464 31.0681589,6.991425 C31.010833,7.06357536 30.9821705,7.16204938 30.9821705,7.28685 C30.9821705,7.36875041 30.9989727,7.43797472 31.0325775,7.494525 C31.0661823,7.55107528 31.1096703,7.59689982 31.1630426,7.632 C31.216415,7.66710018 31.2786818,7.69244992 31.349845,7.70805 C31.4210081,7.72365008 31.4961236,7.73145 31.5751938,7.73145 L31.5751938,7.73145 Z M33.8108915,5.07555 L35.9101938,5.07555 L35.9101938,5.5143 L34.3149612,5.5143 L34.3149612,8.1 L33.8108915,8.1 L33.8108915,5.07555 Z M36.3312403,5.07555 L36.8353101,5.07555 L36.8353101,5.48505 L36.8471705,5.48505 C36.9301942,5.31734916 37.060658,5.19547538 37.2385659,5.119425 C37.4164738,5.04337462 37.6121695,5.00535 37.8256589,5.00535 C38.0628694,5.00535 38.2694371,5.04824957 38.4453682,5.13405 C38.6212993,5.21985043 38.7675769,5.33587427 38.8842054,5.482125 C39.0008339,5.62837573 39.0887982,5.79704904 39.1481008,5.98815 C39.2074034,6.17925096 39.2370543,6.38204893 39.2370543,6.59655 C39.2370543,6.81495109 39.2083918,7.01872405 39.1510659,7.207875 C39.09374,7.39702595 39.0067641,7.56277429 38.8901357,7.705125 C38.7735072,7.84747571 38.6272296,7.95959959 38.4512984,8.0415 C38.2753673,8.12340041 38.0707764,8.16435 37.8375194,8.16435 C37.7584492,8.16435 37.6734501,8.15655008 37.5825194,8.14095 C37.4915887,8.12534992 37.4006594,8.10000018 37.3097287,8.0649 C37.218798,8.02979982 37.1328105,7.9820253 37.0517636,7.921575 C36.9707166,7.8611247 36.9025197,7.78605045 36.8471705,7.69635 L36.8353101,7.69635 L36.8353101,9.25245 L36.3312403,9.25245 L36.3312403,5.07555 Z M37.7841473,7.73145 C37.9541481,7.73145 38.098449,7.69830033 38.2170543,7.632 C38.3356595,7.56569967 38.4305423,7.47795055 38.5017054,7.36875 C38.5728686,7.25954945 38.6242634,7.1347507 38.6558915,6.99435 C38.6875195,6.8539493 38.7033333,6.70965074 38.7033333,6.56145 C38.7033333,6.4210493 38.6845545,6.28357567 38.6469961,6.149025 C38.6094378,6.01447433 38.5521128,5.89455053 38.4750194,5.78925 C38.397926,5.68394947 38.2990898,5.60010031 38.1785078,5.5377 C38.0579258,5.47529969 37.91659,5.4441 37.7544961,5.4441 C37.5844953,5.4441 37.4401944,5.47724967 37.3215891,5.54355 C37.2029839,5.60985033 37.1061244,5.69662446 37.0310078,5.803875 C36.9558911,5.91112554 36.9015312,6.03299932 36.8679264,6.1695 C36.8343215,6.30600068 36.8175194,6.4444493 36.8175194,6.58485 C36.8175194,6.73305074 36.8353099,6.87637431 36.8708915,7.014825 C36.906473,7.15327569 36.9628097,7.27514947 37.0399031,7.38045 C37.1169965,7.48575053 37.2168211,7.57057468 37.3393798,7.634925 C37.4619386,7.69927532 37.6101929,7.73145 37.7841473,7.73145 L37.7841473,7.73145 Z M40.1443798,9.3051 C40.0850772,9.3051 40.0257755,9.30120004 39.9664729,9.2934 C39.9071702,9.28559996 39.8498452,9.2719501 39.7944961,9.25245 L39.7944961,8.79615 C39.8419382,8.81175008 39.890368,8.82734992 39.9397868,8.84295 C39.9892057,8.85855008 40.0396121,8.86635 40.0910078,8.86635 C40.193799,8.86635 40.2768214,8.84295023 40.3400775,8.79615 C40.4033336,8.74934977 40.4586819,8.68110045 40.506124,8.5914 L40.7136822,8.08245 L39.4979845,5.07555 L40.0672868,5.07555 L40.9627519,7.5501 L40.9746124,7.5501 L41.8344961,5.07555 L42.3682171,5.07555 L41.0339147,8.4978 C40.9746121,8.64600074 40.9162987,8.77079949 40.8589729,8.8722 C40.801647,8.97360051 40.7383918,9.05647468 40.6692054,9.120825 C40.600019,9.18517532 40.5229268,9.23197485 40.4379264,9.261225 C40.3529259,9.29047515 40.2550781,9.3051 40.1443798,9.3051 L40.1443798,9.3051 Z M43.921938,8.16435 C43.5147266,8.16435 43.196474,8.0746509 42.9671705,7.89525 C42.7378671,7.7158491 42.6133334,7.46040166 42.5935659,7.1289 L43.1035659,7.1289 C43.1193799,7.35120111 43.2024023,7.51109951 43.3526357,7.6086 C43.502869,7.70610049 43.6906578,7.75485 43.9160078,7.75485 C44.1571717,7.75485 44.3429838,7.70415051 44.4734496,7.60275 C44.6039154,7.50134949 44.6691473,7.37265078 44.6691473,7.21665 C44.6691473,7.06454924 44.6197292,6.94560043 44.5208915,6.8598 C44.4220538,6.77399957 44.2540322,6.7311 44.0168217,6.7311 L43.6076357,6.7311 L43.6076357,6.32745 L43.9337984,6.32745 C44.1117063,6.32745 44.2639141,6.29137536 44.3904264,6.219225 C44.5169386,6.14707464 44.5801938,6.0213009 44.5801938,5.8419 C44.5801938,5.72879943 44.5258339,5.62935043 44.4171124,5.54355 C44.3083909,5.45774957 44.1472879,5.41485 43.9337984,5.41485 C43.8428678,5.41485 43.7529268,5.4245999 43.6639729,5.4441 C43.5750189,5.4636001 43.4949616,5.49479979 43.4237984,5.5377 C43.3526353,5.58060021 43.2933336,5.63714965 43.2458915,5.70735 C43.1984494,5.77755035 43.1687985,5.86334949 43.156938,5.96475 L42.646938,5.96475 C42.6587985,5.77754906 42.7042632,5.62252561 42.7833333,5.499675 C42.8624035,5.37682439 42.9612397,5.27932536 43.079845,5.207175 C43.1984502,5.13502464 43.3328675,5.08335016 43.4831008,5.05215 C43.6333341,5.02094984 43.7855419,5.00535 43.9397287,5.00535 C44.097869,5.00535 44.2461233,5.02094984 44.3844961,5.05215 C44.5228689,5.08335016 44.6444375,5.13307466 44.7492054,5.201325 C44.8539734,5.26957534 44.9369958,5.35439949 44.9982752,5.4558 C45.0595546,5.55720051 45.0901938,5.6780993 45.0901938,5.8185 C45.0901938,5.99400088 45.0397873,6.13634945 44.9389729,6.24555 C44.8381584,6.35475055 44.7244968,6.42299986 44.5979845,6.4503 L44.5979845,6.462 C44.6691476,6.47370006 44.7403097,6.49709982 44.8114729,6.5322 C44.882636,6.56730018 44.9458912,6.6150747 45.0012403,6.675525 C45.0565894,6.7359753 45.1020541,6.81007456 45.1376357,6.897825 C45.1732172,6.98557544 45.1910078,7.08794941 45.1910078,7.20495 C45.1910078,7.36875082 45.1554267,7.5110994 45.0842636,7.632 C45.0131004,7.7529006 44.9182176,7.85234961 44.7996124,7.93035 C44.6810072,8.00835039 44.5456015,8.0668498 44.3933915,8.10585 C44.2411814,8.14485019 44.0840318,8.16435 43.921938,8.16435 L43.921938,8.16435 Z M45.7958915,5.07555 L46.2999612,5.07555 L46.2999612,7.54425 L47.746938,5.07555 L48.3933333,5.07555 L48.3933333,8.1 L47.8892636,8.1 L47.8892636,5.6313 L46.4422868,8.1 L45.7958915,8.1 L45.7958915,5.07555 Z M49.8936822,5.5143 L48.7965891,5.5143 L48.7965891,5.07555 L51.494845,5.07555 L51.494845,5.5143 L50.3977519,5.5143 L50.3977519,8.1 L49.8936822,8.1 L49.8936822,5.5143 Z M53.2027519,8.16435 C52.9576344,8.16435 52.7431598,8.12535039 52.5593217,8.04735 C52.3754836,7.96934961 52.2222874,7.8601507 52.0997287,7.71975 C51.9771699,7.5793493 51.8852522,7.41165097 51.8239729,7.21665 C51.7626935,7.02164902 51.7320543,6.80910115 51.7320543,6.579 C51.7320543,6.35279887 51.7676353,6.14317597 51.8387984,5.950125 C51.9099616,5.75707403 52.0097862,5.5903507 52.1382752,5.44995 C52.2667642,5.3095493 52.418972,5.20035039 52.5949031,5.12235 C52.7708342,5.04434961 52.9635648,5.00535 53.1731008,5.00535 C53.4458928,5.00535 53.6722278,5.06092444 53.8521124,5.172075 C54.031997,5.28322556 54.1762979,5.42459914 54.2850194,5.5962 C54.3937409,5.76780086 54.4688564,5.95499899 54.5103682,6.1578 C54.5518801,6.36060101 54.5686822,6.55364908 54.5607752,6.73695 L52.2657752,6.73695 C52.2618217,6.86955066 52.2776355,6.99532441 52.3132171,7.114275 C52.3487986,7.23322559 52.4061236,7.33852454 52.4851938,7.430175 C52.564264,7.52182546 52.6650769,7.59494973 52.7876357,7.64955 C52.9101944,7.70415027 53.0544953,7.73145 53.2205426,7.73145 C53.4340321,7.73145 53.6089722,7.68270049 53.7453682,7.5852 C53.8817642,7.48769951 53.9717052,7.33950099 54.0151938,7.1406 L54.5133333,7.1406 C54.4461237,7.48380172 54.2978694,7.74022415 54.0685659,7.909875 C53.8392624,8.07952585 53.5506607,8.16435 53.2027519,8.16435 L53.2027519,8.16435 Z M54.0270543,6.2982 C54.0191472,6.18119941 53.9924615,6.07005053 53.9469961,5.96475 C53.9015308,5.85944947 53.8402523,5.76877538 53.7631589,5.692725 C53.6860655,5.61667462 53.5951362,5.55622522 53.4903682,5.511375 C53.3856003,5.46652478 53.2699619,5.4441 53.1434496,5.4441 C53.0129838,5.4441 52.8953687,5.46652478 52.7906008,5.511375 C52.6858328,5.55622522 52.5958918,5.61764961 52.5207752,5.69565 C52.4456585,5.77365039 52.3863568,5.86432448 52.3428682,5.967675 C52.2993796,6.07102552 52.2736822,6.18119941 52.2657752,6.2982 L54.0270543,6.2982 Z M56.7312403,5.07555 L58.1485659,5.07555 C58.2829852,5.07555 58.4124606,5.0852999 58.5369961,5.1048 C58.6615316,5.1243001 58.7732166,5.16037474 58.8720543,5.213025 C58.970892,5.26567526 59.0499609,5.34074951 59.1092636,5.43825 C59.1685662,5.53575049 59.1982171,5.66054924 59.1982171,5.81265 C59.1982171,5.97645082 59.1586826,6.10904949 59.0796124,6.21045 C59.0005422,6.31185051 58.8898457,6.39569967 58.7475194,6.462 L58.7475194,6.46785 C58.9254272,6.50295018 59.066763,6.58484936 59.171531,6.71355 C59.276299,6.84225064 59.3286822,7.00799899 59.3286822,7.2108 C59.3286822,7.33950064 59.3059498,7.45844945 59.2604845,7.56765 C59.2150192,7.67685055 59.1507756,7.77044961 59.0677519,7.84845 C58.9847283,7.92645039 58.885892,7.98787478 58.7712403,8.032725 C58.6565886,8.07757522 58.5320549,8.1 58.3976357,8.1 L56.7312403,8.1 L56.7312403,5.07555 Z M58.3027519,7.6788 C58.4687993,7.6788 58.5943213,7.63102548 58.6793217,7.535475 C58.7643221,7.43992452 58.8068217,7.32000072 58.8068217,7.1757 C58.8068217,7.03919932 58.761357,6.93000041 58.6704264,6.8481 C58.5794957,6.76619959 58.4272879,6.72525 58.2137984,6.72525 L57.2293798,6.72525 L57.2293798,7.6788 L58.3027519,7.6788 Z M58.0951938,6.31575 C58.3126367,6.31575 58.4638562,6.27675039 58.5488566,6.19875 C58.633857,6.12074961 58.6763566,6.01740064 58.6763566,5.8887 C58.6763566,5.76389938 58.6348454,5.66737534 58.5518217,5.599125 C58.468798,5.53087466 58.3165903,5.49675 58.0951938,5.49675 L57.2293798,5.49675 L57.2293798,6.31575 L58.0951938,6.31575 Z" id="Загрузите-в--Copy" fill="#FFFFFF"></path>
          </g>
        </g>
      </g>
    </g>
  </symbol>

   <!-- *huaweistore -->
  <symbol  id="huaweistore" xmlns="http://www.w3.org/2000/svg" fill="none" viewBox="0 0 84 25">
    <title>huaweistore</title>
    <path fill="#222" d="M81 0H3C1.343 0 0 1.343 0 3v19c0 1.657 1.343 3 3 3h78c1.657 0 3-1.343 3-3V3c0-1.657-1.343-3-3-3z"></path>
    <path fill="#fff" d="M31.013 16.447h-2.954l-.722 1.95h-1.298l2.892-7.283h1.227l2.958 7.283h-1.365l-.738-1.95zm-2.582-.99h2.204l-.79-2.086c-.107-.288-.214-.606-.32-.955-.095.308-.199.623-.31.945l-.784 2.096zM33.701 14.302c0-.402-.014-.845-.04-1.327h1.18c.044.225.074.455.092.689.488-.527 1.049-.79 1.68-.79.367 0 .707.091 1.018.274.312.183.565.471.757.864.192.395.288.894.288 1.5 0 .634-.11 1.175-.33 1.625-.218.45-.525.789-.918 1.02-.393.231-.849.347-1.365.347-.373 0-.742-.062-1.105-.186v2.241l-1.258.106v-6.363h.001zm3.307 2.772c.256-.34.384-.837.384-1.491 0-.607-.106-1.046-.318-1.32-.212-.272-.495-.41-.848-.41-.244 0-.47.058-.678.171-.207.114-.404.267-.59.458v2.905c.125.06.271.107.437.143.166.035.332.052.495.052.49.001.861-.169 1.118-.508zM39.48 14.302c0-.402-.013-.845-.04-1.327h1.18c.044.225.074.455.092.689.489-.527 1.05-.79 1.68-.79.367 0 .707.091 1.018.274.313.183.565.471.757.864.192.395.288.894.288 1.5 0 .634-.11 1.175-.33 1.625-.217.45-.525.789-.918 1.02-.393.231-.848.347-1.365.347-.373 0-.741-.062-1.105-.186v2.241l-1.258.106v-6.363h.002zm3.308 2.772c.256-.34.384-.837.384-1.491 0-.607-.106-1.046-.318-1.32-.212-.272-.494-.41-.848-.41-.244 0-.47.058-.677.171-.207.114-.404.267-.59.458v2.905c.125.06.27.107.437.143.166.035.331.052.494.052.49.001.862-.169 1.118-.508zM46.828 18.053c-.544-.296-.96-.72-1.253-1.274-.292-.553-.437-1.206-.437-1.96 0-.818.168-1.512.503-2.083.336-.57.794-1 1.373-1.286.578-.286 1.228-.43 1.947-.43.425 0 .83.047 1.214.139.386.091.745.218 1.077.379l-.321.955c-.669-.315-1.307-.472-1.914-.472-.513 0-.962.108-1.348.324-.385.216-.684.533-.898.952-.213.419-.321.925-.321 1.518 0 .52.082.98.247 1.382.165.402.424.72.778.955.355.235.802.352 1.342.352.245 0 .49-.02.734-.06.244-.04.473-.099.687-.176v-1.473h-1.705v-.965h2.928v3.066c-.421.195-.863.344-1.326.448-.463.103-.923.156-1.383.156-.74-.002-1.38-.15-1.924-.447zM55.994 18.398c-.044-.211-.073-.45-.086-.719-.193.228-.445.422-.756.58-.31.16-.66.24-1.052.24-.316 0-.604-.061-.864-.184-.259-.122-.465-.306-.618-.553-.153-.246-.23-.547-.23-.902 0-.526.193-.945.576-1.26.383-.312 1.023-.47 1.92-.47.336 0 .668.024.997.07v-.105c0-.479-.103-.817-.311-1.012-.207-.196-.503-.295-.89-.295-.269 0-.556.039-.861.116-.306.077-.574.169-.805.276l-.198-.904c.224-.101.52-.193.887-.277.366-.084.753-.126 1.16-.126.476 0 .88.072 1.212.214.333.142.593.387.779.734.187.347.28.814.28 1.4v2.156c0 .224.013.565.041 1.02h-1.18v.001zm-.753-1.005c.26-.124.475-.278.641-.463v-1.005c-.343-.037-.622-.056-.84-.056-.52 0-.879.084-1.077.25-.198.165-.298.389-.298.67 0 .268.072.467.216.596.144.13.34.193.588.193.252 0 .509-.062.77-.185zM58.235 17.096v-6.408l1.252-.1v6.287c0 .231.04.394.12.49.08.096.206.143.38.143.078 0 .188-.019.33-.055l.149.89c-.12.047-.264.085-.435.112-.172.029-.334.043-.487.043-.873 0-1.309-.467-1.309-1.402zM61.366 17.096v-6.408l1.252-.1v6.287c0 .231.04.394.12.49.08.096.206.143.38.143.078 0 .188-.019.33-.055l.149.89c-.12.047-.264.085-.436.112-.17.029-.333.043-.486.043-.872 0-1.309-.467-1.309-1.402zM68.81 15.845h-3.594c.058 1.136.607 1.704 1.645 1.704.258 0 .522-.03.792-.093.27-.062.528-.145.776-.25l.276.85c-.615.295-1.305.443-2.073.443-.583 0-1.076-.109-1.477-.327-.4-.218-.701-.531-.904-.94-.202-.41-.303-.901-.303-1.478 0-.6.107-1.115.321-1.548.215-.433.512-.762.894-.99.381-.228.823-.341 1.321-.341.52 0 .954.119 1.301.36.347.24.606.558.774.956.168.4.252.84.252 1.322v.332zm-1.226-.79c-.023-.432-.134-.756-.331-.972-.198-.217-.46-.324-.79-.324-.32 0-.584.108-.796.326-.213.219-.35.542-.416.97h2.333zM69.825 14.336c0-.298-.014-.752-.04-1.362h1.175c.021.151.04.331.06.54.017.21.03.38.037.51.146-.238.29-.437.43-.6.142-.163.307-.296.495-.397.188-.103.403-.153.643-.153.193 0 .36.02.5.06l-.159 1.075c-.122-.036-.258-.055-.407-.055-.295 0-.553.075-.773.223-.22.149-.457.395-.708.736v3.483h-1.253v-4.06zM73.88 20.617c-.184-.032-.335-.069-.454-.108l.229-.905c.085.024.192.046.321.068.13.022.251.033.367.033.556 0 .973-.354 1.252-1.061l.081-.2-2.026-5.469h1.349l1.019 3.056c.166.523.273.924.32 1.201.096-.392.208-.784.337-1.176l1.034-3.08h1.268l-2.022 5.492c-.19.52-.395.939-.616 1.257-.221.318-.481.554-.782.708-.3.154-.663.231-1.087.231-.212 0-.408-.016-.59-.047z"></path>
    <path fill="#CE0E2D" fill-rule="evenodd" d="M16.697 4H9.595c-3.346 0-4.57 1.208-4.57 4.51v7.01c0 3.303 1.224 4.51 4.57 4.51h7.1c3.345 0 4.571-1.207 4.571-4.51V8.51c0-3.302-1.224-4.51-4.57-4.51z" clip-rule="evenodd"></path>
    <path fill="#fff" d="M8.242 12.017h.43v2.096h-.43v-.851h-.973v.85h-.431v-2.095h.431v.845h.973v-.845zm2.427 1.2c0 .34-.171.522-.483.522-.313 0-.485-.187-.485-.537v-1.184H9.27v1.198c0 .59.332.928.91.928.585 0 .919-.345.919-.946v-1.182h-.43v1.201zm4.978.241l-.482-1.441h-.351l-.483 1.441-.469-1.44h-.458l.74 2.095h.357l.483-1.376.482 1.376h.36l.738-2.095h-.446l-.47 1.44zm1.69-.247h.783v-.381h-.784V12.4h1.138v-.382h-1.562v2.093h1.603v-.382h-1.178v-.519zm1.692.899h.425v-2.093h-.425v2.093zm-7.078-.435l-.194.437h-.44l.936-2.095h.38l.932 2.095h-.452l-.19-.437h-.972zm.16-.377h.651l-.326-.75-.325.75zM13.146 9.349c-1.49 0-2.703-1.197-2.703-2.67h.383c0 1.264 1.041 2.293 2.321 2.293 1.28 0 2.322-1.029 2.322-2.292h.382c-.002 1.472-1.215 2.669-2.705 2.669zM26.928 8.893c-.263-.15-.464-.362-.602-.634-.139-.273-.209-.59-.209-.95 0-.378.074-.71.222-.993.149-.284.362-.503.64-.657.28-.155.608-.232.986-.232.363 0 .674.075.936.224.262.15.46.36.597.631.138.272.206.586.206.942 0 .386-.075.72-.224 1.005-.15.284-.363.504-.64.657-.277.154-.603.23-.976.23-.361.003-.672-.072-.936-.223zm1.608-.44c.174-.116.303-.276.39-.48.085-.205.129-.438.129-.701 0-.258-.039-.488-.115-.69-.076-.201-.197-.362-.364-.482-.167-.12-.383-.18-.645-.18-.251 0-.465.062-.64.183-.175.122-.308.285-.395.49-.087.204-.13.429-.13.675 0 .26.04.492.124.697.083.206.209.368.379.486.17.12.381.179.632.179.25-.002.461-.06.635-.177zM30.962 5.996h-1.114l.054-.519h2.795l-.057.519h-1.059v3.073h-.62V5.996zM36.037 9.07h-.7L34.27 7.486h-.424V9.07h-.62V5.477h.62V6.96h.325l.744-1.077c.108-.16.218-.277.329-.349.11-.072.249-.107.415-.107.14 0 .263.022.373.069l-.13.484c-.068-.028-.132-.043-.193-.043-.073 0-.135.018-.188.055-.052.036-.107.094-.162.175l-.657.943 1.336 1.958zM36.51 5.477h.968c.454 0 .803.093 1.044.278.24.184.362.453.362.804 0 .238-.054.446-.162.624-.108.178-.258.314-.452.409-.194.095-.416.142-.668.142-.137 0-.294-.017-.47-.05V9.07h-.621V5.477zm1.556 1.604c.133-.12.199-.29.199-.508 0-.22-.067-.38-.203-.479-.134-.097-.332-.146-.593-.146h-.338v1.275c.155.025.275.038.358.038.253 0 .445-.06.578-.18zM40.078 8.893c-.263-.15-.465-.362-.603-.634-.138-.273-.208-.59-.208-.95 0-.378.074-.71.222-.993.148-.284.361-.503.64-.657.279-.155.607-.232.986-.232.362 0 .673.075.935.224.262.15.46.36.598.631.137.272.205.586.205.942 0 .386-.075.72-.224 1.005-.15.284-.362.504-.64.657-.277.154-.603.23-.976.23-.36.003-.673-.072-.935-.223zm1.607-.44c.173-.116.303-.276.389-.48.086-.205.13-.438.13-.701 0-.258-.04-.488-.115-.69-.076-.201-.198-.362-.365-.482-.167-.12-.382-.18-.645-.18-.25 0-.464.062-.64.183-.175.122-.307.285-.394.49-.088.204-.131.429-.131.675 0 .26.041.492.124.697.083.206.21.368.38.486.17.12.38.179.632.179.25-.002.462-.06.635-.177zM46.011 9.07V7.094c0-.248.01-.533.028-.854L44.235 9.07h-.69V5.477h.577v2.052c0 .223-.008.467-.023.731l1.776-2.783h.712v3.591h-.576v.001zm-1.4-3.905c-.13-.07-.23-.16-.299-.268-.068-.109-.111-.226-.13-.353h.447c.048.265.203.398.466.398s.419-.133.469-.398h.45c-.018.126-.062.243-.131.353-.068.109-.169.199-.3.268-.132.069-.295.103-.487.103s-.353-.034-.484-.103zM48.225 5.996h-1.114l.055-.519h2.795l-.057.519h-1.06v3.073h-.62V5.996h.002zM50.487 5.477h2.116l-.06.51h-1.435v.99h1.354v.48h-1.354v1.096h1.513l-.052.516h-2.082V5.477zM56.946 7.294c.128.08.23.182.302.31.073.13.11.28.11.451 0 .2-.05.376-.15.53-.099.153-.245.271-.438.357-.192.085-.424.128-.693.128h-1.17V5.477h1.12c.38 0 .666.073.856.22.19.147.285.349.285.606 0 .213-.061.39-.182.534-.122.143-.281.244-.478.301.164.026.31.077.438.156zm-1.434-.348h.387c.13 0 .243-.026.34-.077.1-.052.175-.12.228-.208.053-.087.079-.182.079-.286 0-.147-.053-.257-.16-.33-.107-.073-.26-.109-.462-.109h-.412v1.01zm1.04 1.51c.126-.105.19-.25.19-.438 0-.201-.07-.353-.21-.457-.14-.104-.34-.156-.603-.156h-.417V8.61h.466c.256 0 .447-.051.574-.155z"></path>
  </symbol>

    <!-- *googleplay -->
  <symbol id="googleplay" viewBox="0 0 84 25" version="1.1" xmlns="http://www.w3.org/2000/svg" xmlns:xlink="http://www.w3.org/1999/xlink">
    <title>googleplay</title>
    <defs>
        <linearGradient x1="29.5315068%" y1="-6.0957265%" x2="55.0940639%" y2="92.1559829%" id="linearGradient-1">
            <stop stop-color="#006884" offset="0%"></stop>
            <stop stop-color="#8AD1D0" offset="100%"></stop>
        </linearGradient>
        <linearGradient x1="-7.52792208%" y1="15.7589744%" x2="91.537013%" y2="86.2504274%" id="linearGradient-2">
            <stop stop-color="#24BBB6" offset="0%"></stop>
            <stop stop-color="#DBE692" offset="100%"></stop>
        </linearGradient>
        <linearGradient x1="49.9404255%" y1="105.754795%" x2="49.9404255%" y2="-3.12739726%" id="linearGradient-3">
            <stop stop-color="#FCC072" offset="0%"></stop>
            <stop stop-color="#F58A5B" offset="100%"></stop>
        </linearGradient>
        <linearGradient x1="11.1493421%" y1="117.837069%" x2="90.4368421%" y2="12.1025862%" id="linearGradient-4">
            <stop stop-color="#712B8F" offset="0%"></stop>
            <stop stop-color="#EA1D27" offset="100%"></stop>
        </linearGradient>
    </defs>
    <g id="controls" stroke="none" stroke-width="1" fill="none" fill-rule="evenodd">
        <g id="иконки" transform="translate(-1075.000000, -1724.000000)">
            <g id="google-play-badge-copy" transform="translate(1075.000000, 1724.000000)">
                <g id="Group">
                    <rect id="Rectangle-62" fill="#222222" x="0" y="0" width="84" height="25" rx="3"></rect>
                    <g transform="translate(7.000000, 5.000000)" id="Shape">
                        <path d="M0,7 L0,1 C0,0.320512821 0.319634703,0 1,0 C0.95890411,0 1.08675799,0.0641025641 1,0 L14,7 C13.8721461,7.11538462 14,7.30769231 14,8 C14,7.69230769 13.8721461,7.88461538 14,8 L1,15 C1.15068493,14.8717949 0.95890411,15 1,15 C0.319634703,15 0,14.6794872 0,14 L0,7 L0,7 Z" fill="url(#linearGradient-1)"></path>
                        <path d="M7.66976744,7.8097561 L0.141860465,0.390243902 L0.270542636,0.390243902 C0.592248062,0.390243902 0.720930233,0.453658537 0.913953488,0.580487805 L10.0503876,5.52682927 L7.66976744,7.8097561 L7.66976744,7.8097561 Z" fill="url(#linearGradient-2)"></path>
                        <path d="M9.98604651,10.0292683 L7.66976744,7.74634146 L10.0503876,5.4 L13.3317829,7.17560976 C13.5891473,7.30243902 13.7178295,7.49268293 13.7178295,7.68292683 C13.7178295,7.87317073 13.5891473,8.06341463 13.3317829,8.1902439 L9.98604651,10.0292683 L9.98604651,10.0292683 Z" fill="url(#linearGradient-3)"></path>
                        <path d="M0.20620155,15.102439 L0.20620155,15.102439 L7.66976744,7.74634146 L9.98604651,10.0292683 L0.913953488,14.9121951 C0.720930233,15.0390244 0.592248062,15.102439 0.20620155,15.102439 L0.20620155,15.102439 L0.20620155,15.102439 Z" fill="url(#linearGradient-4)"></path>
                    </g>
                    <path d="M46.0682171,17.8146341 C45.7465116,17.5609756 45.4891473,17.1170732 45.3604651,16.8634146 L46.3899225,16.4195122 C46.4542636,16.5463415 46.5829457,16.7365854 46.7116279,16.9268293 C46.9689922,17.1804878 47.3550388,17.4341463 47.7410853,17.4341463 C48.1271318,17.4341463 48.5775194,17.2439024 48.8348837,16.9268293 C49.027907,16.6097561 49.1565891,16.2926829 49.1565891,15.8487805 L49.1565891,15.4682927 C48.3844961,16.4195122 46.775969,16.2926829 45.8751938,15.2780488 C44.9100775,14.2634146 44.9100775,12.5512195 45.8751938,11.5365854 C46.8403101,10.5853659 48.255814,10.4585366 49.0922481,11.3463415 L49.0922481,11.3463415 L49.0922481,10.902439 L50.1860465,10.902439 L50.1860465,15.6585366 C50.1860465,16.8634146 49.7356589,17.5609756 49.1565891,18.004878 C48.7705426,18.3219512 48.1914729,18.4487805 47.6767442,18.4487805 C47.0976744,18.3853659 46.5186047,18.195122 46.0682171,17.8146341 L46.0682171,17.8146341 L46.0682171,17.8146341 Z M73.0271318,18.0682927 L73.0271318,18.0682927 L74.1209302,15.5317073 L72.1906977,11.1560976 L73.2844961,11.1560976 L74.6356589,14.2634146 L75.9868217,11.1560976 L77.0806202,11.1560976 L74.1209302,18.0682927 L73.0271318,18.0682927 L73.0271318,18.0682927 L73.0271318,18.0682927 Z M67.8155039,15.6585366 L67.8155039,15.6585366 C67.4937984,15.3414634 67.3651163,14.897561 67.3651163,14.4536585 C67.3651163,14.0731707 67.4937984,13.6926829 67.7511628,13.4390244 C68.2015504,12.995122 68.8449612,12.804878 69.5527132,12.804878 C70.0031008,12.804878 70.3891473,12.8682927 70.7108527,13.0585366 C70.7108527,12.297561 70.0674419,11.9804878 69.5527132,11.9804878 C69.1023256,11.9804878 68.651938,12.2341463 68.4589147,12.6780488 L67.4937984,12.297561 C67.6868217,11.8536585 68.2015504,11.0292683 69.4883721,11.0292683 C70.1317829,11.0292683 70.7751938,11.2195122 71.1612403,11.6634146 C71.5472868,12.1073171 71.675969,12.6146341 71.675969,13.3121951 L71.675969,15.9756098 L70.5821705,15.9756098 L70.5821705,15.5317073 C70.4534884,15.7219512 70.196124,15.8487805 70.0031008,15.9756098 C69.7457364,16.102439 69.424031,16.1658537 69.1023256,16.1658537 C68.7162791,16.102439 68.1372093,15.9756098 67.8155039,15.6585366 L67.8155039,15.6585366 L67.8155039,15.6585366 Z M33.5217054,13.3756098 L33.5217054,13.3756098 C33.5217054,12.1073171 34.4868217,10.7121951 36.224031,10.7121951 C37.8968992,10.7121951 38.9263566,12.1073171 38.9263566,13.3756098 C38.9263566,14.6439024 37.9612403,16.0390244 36.224031,16.0390244 C34.4868217,16.0390244 33.5217054,14.6439024 33.5217054,13.3756098 L33.5217054,13.3756098 L33.5217054,13.3756098 Z M39.3124031,13.3756098 L39.3124031,13.3756098 C39.3124031,12.1073171 40.2775194,10.7121951 42.0147287,10.7121951 C43.6875969,10.7121951 44.7170543,12.1073171 44.7170543,13.3756098 C44.7170543,14.6439024 43.751938,16.0390244 42.0147287,16.0390244 C40.3418605,16.0390244 39.3124031,14.6439024 39.3124031,13.3756098 L39.3124031,13.3756098 L39.3124031,13.3756098 Z M26.2511628,14.7707317 L26.2511628,14.7707317 C24.6426357,13.1853659 24.7069767,10.5853659 26.3155039,8.93658537 C27.151938,8.11219512 28.1813953,7.73170732 29.2751938,7.73170732 C30.3046512,7.73170732 31.3341085,8.11219512 32.1062016,8.87317073 L31.3341085,9.69756098 C30.175969,8.55609756 28.3100775,8.6195122 27.2162791,9.76097561 C26.0581395,10.9658537 26.0581395,12.804878 27.2162791,14.0097561 C28.3744186,15.2146341 30.3046512,15.2780488 31.4627907,14.0731707 C31.8488372,13.6926829 31.9775194,13.1853659 32.0418605,12.6780488 L29.3395349,12.6780488 L29.3395349,11.5365854 L33.1356589,11.5365854 C33.2,11.7902439 33.2,12.1073171 33.2,12.4243902 C33.2,13.3756098 32.8139535,14.3268293 32.1705426,14.9609756 C31.4627907,15.6585366 30.4333333,16.0390244 29.403876,16.0390244 C28.2457364,15.9756098 27.0875969,15.595122 26.2511628,14.7707317 L26.2511628,14.7707317 L26.2511628,14.7707317 Z M53.4674419,15.2146341 L53.4674419,15.2146341 C52.5023256,14.2 52.5023256,12.4878049 53.4674419,11.4097561 C54.4325581,10.395122 56.0410853,10.395122 56.9418605,11.4097561 C57.2635659,11.7268293 57.4565891,12.1707317 57.6496124,12.6146341 L54.1108527,14.0731707 C54.303876,14.5170732 54.7542636,14.897561 55.3976744,14.897561 C55.9767442,14.897561 56.3627907,14.7073171 56.7488372,14.1365854 L57.7139535,14.7707317 L57.7139535,14.7707317 C57.5852713,14.897561 57.4565891,15.0243902 57.3922481,15.1512195 C56.2984496,16.2292683 54.4325581,16.2292683 53.4674419,15.2146341 L53.4674419,15.2146341 L53.4674419,15.2146341 Z M60.1589147,15.9756098 L60.1589147,15.9756098 L60.1589147,8.93658537 L62.4751938,8.93658537 C63.8263566,8.93658537 64.920155,9.88780488 64.920155,11.0292683 C64.920155,12.1707317 63.9550388,13.1219512 62.7325581,13.1219512 L61.3170543,13.1219512 L61.3170543,15.9121951 L60.1589147,15.9121951 L60.1589147,15.9756098 L60.1589147,15.9756098 Z M65.5635659,15.9756098 L65.5635659,15.9756098 L65.5635659,8.93658537 L66.6573643,8.93658537 L66.6573643,15.9756098 L65.5635659,15.9756098 L65.5635659,15.9756098 L65.5635659,15.9756098 Z M51.0224806,15.8487805 L51.0224806,15.8487805 L51.0224806,7.98536585 L52.1806202,7.98536585 L52.1806202,15.8487805 L51.0224806,15.8487805 L51.0224806,15.8487805 L51.0224806,15.8487805 Z M70.6465116,13.8829268 L70.6465116,13.8829268 C70.3891473,13.6926829 70.0031008,13.6292683 69.6170543,13.6292683 C68.8449612,13.6292683 68.3945736,14.0097561 68.3945736,14.4536585 C68.3945736,14.897561 68.8449612,15.1512195 69.2953488,15.1512195 C69.9387597,15.1512195 70.6465116,14.6439024 70.6465116,13.8829268 L70.6465116,13.8829268 L70.6465116,13.8829268 Z M37.703876,13.3756098 L37.703876,13.3756098 C37.703876,12.6146341 37.1891473,11.7902439 36.224031,11.7902439 C35.2589147,11.7902439 34.744186,12.6146341 34.744186,13.3756098 C34.744186,14.1365854 35.2589147,14.9609756 36.224031,14.9609756 C37.1248062,14.9609756 37.703876,14.1365854 37.703876,13.3756098 L37.703876,13.3756098 L37.703876,13.3756098 Z M43.4945736,13.3756098 L43.4945736,13.3756098 C43.4945736,12.6146341 42.979845,11.7902439 42.0147287,11.7902439 C41.0496124,11.7902439 40.5348837,12.6146341 40.5348837,13.3756098 C40.5348837,14.1365854 41.0496124,14.9609756 42.0147287,14.9609756 C42.979845,14.9609756 43.4945736,14.1365854 43.4945736,13.3756098 L43.4945736,13.3756098 L43.4945736,13.3756098 Z M49.2209302,13.8195122 L49.2209302,13.8195122 C49.2209302,13.7560976 49.2209302,13.6926829 49.2852713,13.6292683 L49.2852713,13.6292683 L49.2852713,13.3756098 L49.2852713,13.1219512 L49.2852713,13.0585366 C49.2852713,12.995122 49.2209302,12.8682927 49.2209302,12.804878 C49.027907,12.1707317 48.4488372,11.7268293 47.8697674,11.7268293 C47.0976744,11.7268293 46.4542636,12.4878049 46.4542636,13.3121951 C46.4542636,14.2 47.0976744,14.897561 47.9341085,14.897561 C48.4488372,14.9609756 48.9635659,14.5170732 49.2209302,13.8195122 L49.2209302,13.8195122 L49.2209302,13.8195122 Z M53.9178295,13.2487805 L53.9178295,13.2487805 L56.2984496,12.2341463 C56.0410853,11.7902439 55.6550388,11.6634146 55.3333333,11.6634146 C54.3682171,11.7268293 53.7891473,12.7414634 53.9178295,13.2487805 L53.9178295,13.2487805 L53.9178295,13.2487805 Z M63.7620155,11.0926829 L63.7620155,11.0926829 C63.7620155,10.4585366 63.2472868,10.0146341 62.5395349,10.0146341 L61.2527132,10.0146341 L61.2527132,12.2341463 L62.603876,12.2341463 C63.2472868,12.2341463 63.7620155,11.7268293 63.7620155,11.0926829 L63.7620155,11.0926829 Z" id="Shape" fill="#FFFFFF"></path>
                </g>
            </g>
        </g>
    </g>
</symbol>


</svg>