<svg xmlns="http://www.w3.org/2000/svg" xmlns:xlink="http://www.w3.org/1999/xlink" width="24" height="24" viewBox="0 0 24 24">
    <defs>
        <radialGradient id="prefix__a" cx="29.325%" cy="114.486%" r="158.3%" fx="29.325%" fy="114.486%" gradientTransform="rotate(140.62 .23 .966) scale(1 .68759)">
            <stop offset="0%" stop-color="#FED97C"/>
            <stop offset="25.781%" stop-color="#F56F32"/>
            <stop offset="58.631%" stop-color="#CE318D"/>
            <stop offset="100%" stop-color="#A637B6"/>
        </radialGradient>
        <radialGradient id="prefix__c" cx="29.325%" cy="114.486%" r="158.3%" fx="29.325%" fy="114.486%" gradientTransform="rotate(140.62 .23 .966) scale(1 .68759)">
            <stop offset="0%" stop-color="#FED97C"/>
            <stop offset="25.781%" stop-color="#F56F32"/>
            <stop offset="58.631%" stop-color="#CE318D"/>
            <stop offset="100%" stop-color="#A637B6"/>
        </radialGradient>
        <linearGradient id="prefix__b" x1="36.764%" x2="22.233%" y1="50%" y2="-8.948%">
            <stop offset="0%" stop-color="#783AB3" stop-opacity="0"/>
            <stop offset="100%" stop-color="#3F6ADD"/>
        </linearGradient>
        <linearGradient id="prefix__e" x1="36.279%" x2="16.323%" y1="36.468%" y2="-37.479%">
            <stop offset="0%" stop-color="#783AB3" stop-opacity="0"/>
            <stop offset="100%" stop-color="#3F6ADD"/>
        </linearGradient>
        <path id="prefix__d" d="M12.885 5c1.12.004 1.39.014 2.001.042.745.034 1.254.152 1.7.325.46.18.85.419 1.24.808.389.389.628.78.807 1.24.173.445.291.954.325 1.699.03.645.04.91.042 2.196v1.38c-.002 1.286-.012 1.552-.042 2.196-.034.745-.152 1.254-.325 1.7-.179.46-.418.85-.807 1.24-.39.389-.78.628-1.24.807-.446.173-.955.291-1.7.325-.678.031-.937.04-2.407.042h-.958c-1.47-.001-1.728-.01-2.407-.042-.745-.034-1.254-.152-1.7-.325-.46-.179-.85-.418-1.24-.807-.388-.39-.628-.78-.807-1.24-.173-.446-.291-.955-.325-1.7-.028-.61-.038-.881-.041-2v-1.771c.003-1.12.013-1.39.04-2.001.035-.745.153-1.254.326-1.7.18-.46.419-.85.808-1.24.389-.388.78-.628 1.24-.807.445-.173.954-.291 1.699-.325.61-.028.881-.038 2.001-.041zm-.016 1.262h-1.738c-1.098.003-1.356.012-1.96.04-.682.031-1.053.145-1.3.241-.326.127-.56.279-.804.524-.245.245-.397.478-.524.805-.096.246-.21.617-.241 1.3-.028.603-.037.861-.04 1.959v1.738c.003 1.098.012 1.356.04 1.96.031.682.145 1.053.24 1.3.128.326.28.56.525.805s.478.396.805.523c.246.096.617.21 1.3.241.737.034.959.041 2.828.041h.245c1.646 0 1.88-.009 2.584-.04.682-.032 1.053-.146 1.3-.242.326-.127.56-.278.805-.523s.396-.479.523-.805c.096-.247.21-.618.241-1.3.034-.738.041-.96.041-2.829v-.245c0-1.645-.009-1.879-.04-2.584-.032-.682-.146-1.053-.242-1.3-.127-.326-.278-.56-.523-.804-.245-.245-.479-.397-.805-.524-.247-.096-.618-.21-1.3-.241-.604-.028-.862-.037-1.96-.04zM12 8.405c1.985 0 3.595 1.61 3.595 3.595s-1.61 3.595-3.595 3.595S8.405 13.985 8.405 12 10.015 8.405 12 8.405zm0 1.262c-1.289 0-2.333 1.044-2.333 2.333 0 1.289 1.044 2.334 2.333 2.334 1.289 0 2.334-1.045 2.334-2.334 0-1.289-1.045-2.333-2.334-2.333zm3.737-2.244c.464 0 .84.376.84.84 0 .464-.376.84-.84.84-.464 0-.84-.376-.84-.84 0-.464.376-.84.84-.84z"/>
    </defs>
    <g fill="none" fill-rule="evenodd">
        <path d="M0 0H24V24H0z"/>
        <g stroke-linejoin="square">
            <path stroke="url(#prefix__a)" d="M12 22.5c7.991 0 10.5-2.501 10.5-10.466C22.5 4.047 19.97 1.5 12 1.5 4.03 1.5 1.5 4.048 1.5 12.034 1.5 20 4.009 22.5 12 22.5z"/>
            <path stroke="url(#prefix__b)" d="M12 22.5c7.991 0 10.5-2.501 10.5-10.466C22.5 4.047 19.97 1.5 12 1.5 4.03 1.5 1.5 4.048 1.5 12.034 1.5 20 4.009 22.5 12 22.5z"/>
        </g>
        <use fill="url(#prefix__c)" xlink:href="#prefix__d"/>
        <use fill="url(#prefix__e)" xlink:href="#prefix__d"/>
    </g>
</svg>
