<svg xmlns="http://www.w3.org/2000/svg" width="24" height="24" viewBox="0 0 24 24">
    <g fill="none" fill-rule="evenodd">
        <path d="M0 0H24V24H0z"/>
        <path stroke="#888" d="M12 22.5c7.991 0 10.5-2.501 10.5-10.466C22.5 4.047 19.97 1.5 12 1.5 4.03 1.5 1.5 4.048 1.5 12.034 1.5 20 4.009 22.5 12 22.5z"/>
        <path fill="#888" d="M12.05 7c.484.001 4.396.019 5.42.299.602.164 1.076.648 1.237 1.263.258.98.289 2.898.293 3.344v.188c-.004.446-.035 2.364-.293 3.345-.16.614-.635 1.098-1.237 1.263-.956.26-4.427.293-5.28.297h-.38c-.853-.004-4.324-.036-5.28-.297-.602-.165-1.076-.649-1.237-1.263-.27-1.026-.291-3.075-.293-3.396v-.086c.002-.321.023-2.37.293-3.395.16-.615.635-1.1 1.237-1.263C7.554 7.019 11.466 7 11.95 7zM10 9.5v5l4.5-2.5L10 9.5z"/>
    </g>
</svg>
