<svg xmlns="http://www.w3.org/2000/svg" width="24" height="24" viewBox="0 0 24 24">
    <g fill="none" fill-rule="evenodd">
        <path d="M0 0H24V24H0z"/>
        <path stroke="#888" d="M12 22.5c7.991 0 10.5-2.501 10.5-10.466C22.5 4.047 19.97 1.5 12 1.5 4.03 1.5 1.5 4.048 1.5 12.034 1.5 20 4.009 22.5 12 22.5z"/>
        <path fill="#888" d="M16.282 15.183l.488-3.18h-3.051V9.94c0-.87.426-1.718 1.792-1.718h1.387V5.515S15.64 5.3 14.436 5.3c-2.513 0-4.155 1.523-4.155 4.28v2.423H7.488v3.18h2.793V22h3.438v-6.817h2.563z"/>
    </g>
</svg>
