<?xml version="1.0" encoding="UTF-8" standalone="no"?>
<svg width="50px" height="16px" viewBox="0 0 50 16" version="1.1" xmlns="http://www.w3.org/2000/svg" xmlns:xlink="http://www.w3.org/1999/xlink">
    <!-- Generator: sketchtool 3.8.3 (29802) - http://www.bohemiancoding.com/sketch -->
    <title>221DD823-96FC-4545-B112-E3A7A4D92D5C</title>
    <desc>Created with sketchtool.</desc>
    <defs>
        <polyline id="path-1" points="0 0.121795918 49.0625306 0.121795918 49.0625306 15.9804082 0 15.9804082"></polyline>
    </defs>
    <g id="controls" stroke="none" stroke-width="1" fill="none" fill-rule="evenodd">
        <g id="иконки" transform="translate(-852.000000, -1736.000000)">
            <g id="visa" transform="translate(852.000000, 1736.000000)">
                <g id="Group-4">
                    <mask id="mask-2" fill="white">
                        <use xlink:href="#path-1"></use>
                    </mask>
                    <g id="Clip-2"></g>
                    <polyline id="Fill-1" fill="#005CA3" mask="url(#mask-2)" points="17.2862041 15.771102 19.7720816 0.4 23.7462857 0.4 21.2604082 15.771102 17.2862041 15.771102"></polyline>
                    <path d="M35.6682449,0.775836735 C34.8832653,0.465306122 33.6404898,0.121795918 32.1031837,0.121795918 C28.1782857,0.121795918 25.4142041,2.21485714 25.3978776,5.20718367 C25.3652245,7.41485714 27.3766531,8.64130612 28.8813061,9.37730612 C30.4186122,10.1293061 30.9420408,10.6197551 30.9420408,11.290449 C30.9257143,12.3206531 29.6992653,12.795102 28.554449,12.795102 C26.9681633,12.795102 26.117551,12.5498776 24.8254694,11.9771429 L24.3020408,11.7319184 L23.7462857,15.1823673 C24.6785306,15.6075102 26.3954286,15.9836735 28.1782857,16 C32.3484082,16 35.0631837,13.9395918 35.0958367,10.7510204 C35.1121633,9.00081633 34.0493061,7.66008163 31.7596735,6.56457143 C30.3696327,5.86155102 29.5193469,5.38710204 29.5193469,4.6677551 C29.5356735,4.01371429 30.2386939,3.34334694 31.8086531,3.34334694 C33.1007347,3.31069388 34.0493061,3.62122449 34.7689796,3.93208163 L35.1288163,4.09534694 L35.6682449,0.775836735" id="Fill-3" fill="#005CA3" mask="url(#mask-2)"></path>
                </g>
                <path d="M45.8569796,0.4 L42.7823673,0.4 C41.8337959,0.4 41.1141224,0.677877551 40.7053061,1.67510204 L34.8016327,15.771102 L38.9717551,15.771102 C38.9717551,15.771102 39.6587755,13.8739592 39.8060408,13.4651429 L44.9084082,13.4651429 C45.0230204,14.004898 45.3828571,15.771102 45.3828571,15.771102 L49.0625306,15.771102 L45.8569796,0.4 L45.8569796,0.4 Z M40.9505306,10.325551 C41.2777143,9.44261224 42.5371429,6.02481633 42.5371429,6.02481633 C42.5208163,6.05779592 42.8643265,5.12555102 43.0605714,4.55314286 L43.338449,5.87755102 C43.338449,5.87755102 44.0907755,9.55722449 44.2543673,10.325551 L40.9505306,10.325551 L40.9505306,10.325551 Z" id="Fill-5" fill="#005CA3"></path>
                <path d="M13.9663673,0.4 L10.0741224,10.8816327 L9.64897959,8.75559184 C8.92930612,6.30302041 6.67265306,3.63787755 4.15412245,2.31314286 L7.71918367,15.7547755 L11.9222857,15.7547755 L18.1694694,0.4 L13.9663673,0.4" id="Fill-6" fill="#005CA3"></path>
                <path d="M6.46008163,0.4 L0.0653061224,0.4 L0,0.710530612 C4.98808163,1.98595918 8.29159184,5.0602449 9.64897959,8.75559184 L8.25893878,1.69142857 C8.03004082,0.710530612 7.32669388,0.432326531 6.46008163,0.4" id="Fill-7" fill="#FFAD30"></path>
            </g>
        </g>
    </g>
</svg>