<svg xmlns="http://www.w3.org/2000/svg" width="24" height="24" viewBox="0 0 24 24">
    <g fill="none" fill-rule="evenodd">
        <path d="M0 0H24V24H0z"/>
        <path stroke="#888" d="M12 22.5c7.991 0 10.5-2.501 10.5-10.466C22.5 4.047 19.97 1.5 12 1.5 4.03 1.5 1.5 4.048 1.5 12.034 1.5 20 4.009 22.5 12 22.5z"/>
        <path fill="#888" d="M18.737 8.623c.11-.344 0-.595-.486-.595H16.64c-.407 0-.595.22-.705.454 0 0-.83 2.005-1.989 3.304-.375.376-.548.501-.751.501-.11 0-.25-.125-.25-.47v-3.21c0-.407-.126-.594-.47-.594H9.937c-.25 0-.407.187-.407.375 0 .392.58.486.642 1.582v2.38c0 .517-.094.61-.298.61-.548 0-1.879-2.02-2.677-4.321-.157-.454-.313-.626-.72-.626H4.848c-.47 0-.548.219-.548.454 0 .422.548 2.552 2.552 5.37 1.331 1.926 3.226 2.96 4.933 2.96 1.033 0 1.158-.235 1.158-.626v-1.457c0-.47.094-.548.423-.548.235 0 .658.126 1.613 1.05 1.096 1.095 1.284 1.597 1.895 1.597h1.612c.47 0 .69-.235.564-.69-.14-.454-.673-1.111-1.362-1.894-.376-.439-.94-.924-1.112-1.159-.235-.313-.172-.438 0-.72-.016 0 1.957-2.787 2.161-3.727"/>
    </g>
</svg>
