<svg xmlns="http://www.w3.org/2000/svg" width="24" height="24" viewBox="0 0 24 24">
    <g fill="none" fill-rule="evenodd">
        <path d="M0 0H24V24H0z"/>
        <path stroke="red" d="M12 1.5c3.94 0 6.592.62 8.238 2.271C21.89 5.428 22.5 8.094 22.5 12.034c0 3.933-.607 6.579-2.253 8.22-1.646 1.64-4.3 2.246-8.247 2.246-3.946 0-6.6-.606-8.247-2.247-1.646-1.64-2.253-4.286-2.253-8.219 0-3.94.61-6.605 2.262-8.262C5.408 2.12 8.06 1.5 12 1.5h0z"/>
        <path fill="red" d="M12.05 7c.484.001 4.396.019 5.42.299.602.164 1.076.648 1.237 1.263.258.98.289 2.898.293 3.344v.188c-.004.446-.035 2.364-.293 3.345-.16.614-.635 1.098-1.237 1.263-.956.26-4.427.293-5.28.297h-.38c-.853-.004-4.324-.036-5.28-.297-.602-.165-1.076-.649-1.237-1.263-.27-1.026-.291-3.075-.293-3.396v-.086c.002-.321.023-2.37.293-3.395.16-.615.635-1.1 1.237-1.263C7.554 7.019 11.466 7 11.95 7zM10 9.5v5l4.5-2.5L10 9.5z"/>
    </g>
</svg>
